<svg width="24" height="24" viewBox="0 0 24 24" fill="none" xmlns="http://www.w3.org/2000/svg">
<path d="M20 24H4C2.93913 24 1.92172 23.5786 1.17157 22.8284C0.421427 22.0783 0 21.0609 0 20V4C0 2.93913 0.421427 1.92172 1.17157 1.17157C1.92172 0.421427 2.93913 0 4 0H20C21.0609 0 22.0783 0.421427 22.8284 1.17157C23.5786 1.92172 24 2.93913 24 4V20C24 21.0609 23.5786 22.0783 22.8284 22.8284C22.0783 23.5786 21.0609 24 20 24Z" fill="#99D4A8"/>
<path d="M17.3337 0H6.66699V10.6667C6.66696 10.9081 6.73245 11.1449 6.85649 11.352C6.98053 11.5591 7.15846 11.7286 7.3713 11.8425C7.58414 11.9564 7.82391 12.0103 8.06501 11.9986C8.30612 11.9869 8.53953 11.91 8.74033 11.776L12.0003 9.6L15.2603 11.7733C15.4609 11.9072 15.6941 11.9841 15.935 11.9959C16.1758 12.0078 16.4154 11.954 16.6282 11.8405C16.8409 11.7269 17.0189 11.5578 17.1431 11.3511C17.2674 11.1444 17.3332 10.9078 17.3337 10.6667V0Z" fill="#009427"/>
<path d="M8.33333 20H4.33333C3.97971 20 3.64057 19.8596 3.39052 19.6095C3.14048 19.3595 3 19.0203 3 18.6667C3 18.3131 3.14048 17.9739 3.39052 17.7239C3.64057 17.4738 3.97971 17.3334 4.33333 17.3334H8.33333C8.68696 17.3334 9.02609 17.4738 9.27614 17.7239C9.52619 17.9739 9.66667 18.3131 9.66667 18.6667C9.66667 19.0203 9.52619 19.3595 9.27614 19.6095C9.02609 19.8596 8.68696 20 8.33333 20Z" fill="#009427"/>
</svg>
