<svg width="24" height="24" viewBox="0 0 24 24" fill="none" xmlns="http://www.w3.org/2000/svg">
<path d="M20 24H4C2.93913 24 1.92172 23.5786 1.17157 22.8284C0.421427 22.0783 0 21.0609 0 20V4C0 2.93913 0.421427 1.92172 1.17157 1.17157C1.92172 0.421427 2.93913 0 4 0H20C21.0609 0 22.0783 0.421427 22.8284 1.17157C23.5786 1.92172 24 2.93913 24 4V20C24 21.0609 23.5786 22.0783 22.8284 22.8284C22.0783 23.5786 21.0609 24 20 24Z" fill="#F1A4A6"/>
<path d="M17.3337 0H6.66699V10.6667C6.66696 10.9081 6.73245 11.1449 6.85649 11.352C6.98053 11.5591 7.15846 11.7286 7.3713 11.8425C7.58414 11.9564 7.82391 12.0103 8.06501 11.9986C8.30612 11.9869 8.53953 11.91 8.74033 11.776L12.0003 9.6L15.2603 11.7733C15.4609 11.9072 15.6941 11.9841 15.935 11.9959C16.1758 12.0078 16.4154 11.954 16.6282 11.8405C16.8409 11.7269 17.0189 11.5578 17.1431 11.3511C17.2674 11.1444 17.3332 10.9078 17.3337 10.6667V0Z" fill="#DB1F26"/>
<path d="M18.6663 19.9999H14.6663C14.3127 19.9999 13.9736 19.8594 13.7235 19.6094C13.4735 19.3593 13.333 19.0202 13.333 18.6666C13.333 18.313 13.4735 17.9738 13.7235 17.7238C13.9736 17.4737 14.3127 17.3333 14.6663 17.3333H18.6663C19.02 17.3333 19.3591 17.4737 19.6092 17.7238C19.8592 17.9738 19.9997 18.313 19.9997 18.6666C19.9997 19.0202 19.8592 19.3593 19.6092 19.6094C19.3591 19.8594 19.02 19.9999 18.6663 19.9999Z" fill="#DB1F26"/>
</svg>
