<svg width="17" height="17" viewBox="0 0 17 17" fill="none" xmlns="http://www.w3.org/2000/svg">
<g clip-path="url(#clip0_2328_3979)">
<path d="M8.77787 16.5C8.6972 16.5 8.61587 16.4807 8.54254 16.4414L1.04787 12.4414C0.884536 12.354 0.783203 12.1847 0.783203 12V4.83335C0.783203 4.65935 0.87387 4.49802 1.02187 4.40668C1.17187 4.31602 1.35587 4.30935 1.51054 4.38802L9.0052 8.22135C9.17254 8.30668 9.27787 8.47868 9.27787 8.66669V16C9.27787 16.176 9.18587 16.3387 9.0352 16.4287C8.95587 16.476 8.8672 16.5 8.77787 16.5ZM1.7832 11.7L8.27787 15.1667V8.97268L1.7832 5.65068V11.7Z" fill="#333333"/>
<path d="M8.78809 16.5C8.69875 16.5 8.61009 16.476 8.53075 16.4287C8.38009 16.3387 8.28809 16.176 8.28809 16V8.66669C8.28809 8.47868 8.39342 8.30668 8.56075 8.22135L16.0554 4.38802C16.2108 4.30935 16.3954 4.31602 16.5441 4.40668C16.6928 4.49735 16.7828 4.65935 16.7828 4.83335V12C16.7828 12.1847 16.6814 12.354 16.5181 12.4414L9.02342 16.4414C8.94942 16.4807 8.86875 16.5 8.78809 16.5ZM9.28809 8.97268V15.1667L15.7828 11.7V5.65068L9.28809 8.97268Z" fill="#333333"/>
<path d="M16.2832 5.33329C16.2066 5.33329 16.1292 5.31596 16.0559 5.27862L8.78856 1.56129L1.51056 5.27862C1.26522 5.40462 0.963891 5.30662 0.837891 5.06062C0.712557 4.81462 0.809891 4.51396 1.05589 4.38796L8.56122 0.554622C8.70456 0.481955 8.87389 0.481955 9.01656 0.554622L16.5112 4.38796C16.7572 4.51396 16.8546 4.81529 16.7292 5.06062C16.6399 5.23396 16.4646 5.33329 16.2832 5.33329Z" fill="#333333"/>
<path d="M12.4502 11C12.1742 11 11.9502 10.776 11.9502 10.5V7.14201L4.60623 3.46734C4.35957 3.34334 4.25957 3.04267 4.3829 2.79601C4.5069 2.54934 4.80823 2.45001 5.05357 2.57267L12.6736 6.38601C12.8436 6.47134 12.9502 6.64401 12.9502 6.83334V10.5C12.9502 10.776 12.7262 11 12.4502 11Z" fill="#333333"/>
</g>
<defs>
<clipPath id="clip0_2328_3979">
<rect width="16" height="16" fill="white" transform="translate(0.783203 0.5)"/>
</clipPath>
</defs>
</svg>
