<svg width="78" height="78" viewBox="0 0 78 78" fill="none" xmlns="http://www.w3.org/2000/svg">
<g filter="url(#filter0_d_817_3442)">
<path d="M57.8288 26.2494C57.8288 36.5564 49.4734 44.9118 39.1664 44.9118C28.8594 44.9118 20.5039 36.5564 20.5039 26.2494C20.5039 15.9424 28.8594 7.58691 39.1664 7.58691C49.4734 7.58691 57.8288 15.9424 57.8288 26.2494Z" fill="#19191A"/>
<path d="M57.0788 26.2494C57.0788 36.1421 49.0591 44.1618 39.1664 44.1618C29.2736 44.1618 21.2539 36.1421 21.2539 26.2494C21.2539 16.3566 29.2736 8.33691 39.1664 8.33691C49.0591 8.33691 57.0788 16.3566 57.0788 26.2494Z" stroke="url(#paint0_linear_817_3442)" stroke-width="1.5"/>
</g>
<path fill-rule="evenodd" clip-rule="evenodd" d="M43.8656 21.2689C43.9002 21.3293 43.9606 21.3725 44.0384 21.3725C46.112 21.3725 47.8054 23.064 47.8054 25.1354V30.2618C47.8054 32.3331 46.112 34.0247 44.0384 34.0247H34.2924C32.2102 34.0247 30.5254 32.3331 30.5254 30.2618V25.1354C30.5254 23.064 32.2102 21.3725 34.2924 21.3725C34.3616 21.3725 34.4307 21.338 34.4566 21.2689L34.5084 21.1654C34.5382 21.1027 34.5688 21.0383 34.5998 20.9729C34.8209 20.5073 35.0654 19.9923 35.2169 19.6895C35.6144 18.9128 36.2883 18.4813 37.1264 18.4727H41.1958C42.0339 18.4813 42.7165 18.9128 43.1139 19.6895C43.25 19.9614 43.4573 20.3994 43.6572 20.8215C43.6984 20.9085 43.7393 20.9949 43.7792 21.079L43.8656 21.2689ZM43.2349 24.583C43.2349 25.0145 43.5805 25.3597 44.0125 25.3597C44.4445 25.3597 44.7987 25.0145 44.7987 24.583C44.7987 24.1515 44.4445 23.7976 44.0125 23.7976C43.5805 23.7976 43.2349 24.1515 43.2349 24.583ZM37.6707 25.9207C38.0768 25.5151 38.6038 25.2993 39.1654 25.2993C39.727 25.2993 40.2541 25.5151 40.6515 25.9121C41.0489 26.3091 41.2649 26.8355 41.2649 27.3965C41.2563 28.553 40.3232 29.4937 39.1654 29.4937C38.6038 29.4937 38.0768 29.278 37.6793 28.881C37.2819 28.484 37.0659 27.9575 37.0659 27.3965V27.3879C37.0573 26.8442 37.2733 26.3177 37.6707 25.9207ZM41.5587 29.7958C40.9453 30.4086 40.0985 30.7883 39.1654 30.7883C38.2582 30.7883 37.4115 30.4344 36.7635 29.7958C36.1241 29.1485 35.7699 28.3027 35.7699 27.3965C35.7612 26.499 36.1155 25.6532 36.7548 25.0059C37.4029 24.3586 38.2582 24.0048 39.1654 24.0048C40.0726 24.0048 40.928 24.3586 41.5673 24.9973C42.2067 25.6445 42.5609 26.499 42.5609 27.3965C42.5523 28.3372 42.1721 29.183 41.5587 29.7958Z" fill="white"/>
<defs>
<filter id="filter0_d_817_3442" x="0.503906" y="0.586914" width="77.3252" height="77.3252" filterUnits="userSpaceOnUse" color-interpolation-filters="sRGB">
<feFlood flood-opacity="0" result="BackgroundImageFix"/>
<feColorMatrix in="SourceAlpha" type="matrix" values="0 0 0 0 0 0 0 0 0 0 0 0 0 0 0 0 0 0 127 0" result="hardAlpha"/>
<feOffset dy="13"/>
<feGaussianBlur stdDeviation="10"/>
<feComposite in2="hardAlpha" operator="out"/>
<feColorMatrix type="matrix" values="0 0 0 0 0.14902 0 0 0 0 0.14902 0 0 0 0 0.14902 0 0 0 0.2 0"/>
<feBlend mode="normal" in2="BackgroundImageFix" result="effect1_dropShadow_817_3442"/>
<feBlend mode="normal" in="SourceGraphic" in2="effect1_dropShadow_817_3442" result="shape"/>
</filter>
<linearGradient id="paint0_linear_817_3442" x1="7.39024" y1="-29.153" x2="42.2865" y2="36.173" gradientUnits="userSpaceOnUse">
<stop stop-color="white"/>
<stop offset="1" stop-color="white" stop-opacity="0"/>
</linearGradient>
</defs>
</svg>
