<svg width="17" height="18" viewBox="0 0 17 18" fill="none" xmlns="http://www.w3.org/2000/svg">
<path d="M10.8 1.8H5.4C5.16131 1.8 4.93239 1.70518 4.7636 1.5364C4.59482 1.36761 4.5 1.13869 4.5 0.9C4.5 0.661305 4.59482 0.432387 4.7636 0.263604C4.93239 0.0948211 5.16131 0 5.4 0H10.8C11.0387 0 11.2676 0.0948211 11.4364 0.263604C11.6052 0.432387 11.7 0.661305 11.7 0.9C11.7 1.13869 11.6052 1.36761 11.4364 1.5364C11.2676 1.70518 11.0387 1.8 10.8 1.8Z" fill="#8E8E93"/>
<path d="M10.7998 18.0001H5.39981C4.44503 18.0001 3.52935 17.6208 2.85422 16.9457C2.17909 16.2705 1.7998 15.3549 1.7998 14.4001V3.6001H14.3998V14.4001C14.3998 15.3549 14.0205 16.2705 13.3454 16.9457C12.6703 17.6208 11.7546 18.0001 10.7998 18.0001Z" fill="#8E8E93"/>
<path d="M15.3 5.4001H0.9C0.661305 5.4001 0.432387 5.30528 0.263604 5.13649C0.0948211 4.96771 0 4.73879 0 4.5001C0 4.2614 0.0948211 4.03248 0.263604 3.8637C0.432387 3.69492 0.661305 3.6001 0.9 3.6001H15.3C15.5387 3.6001 15.7676 3.69492 15.9364 3.8637C16.1052 4.03248 16.2 4.2614 16.2 4.5001C16.2 4.73879 16.1052 4.96771 15.9364 5.13649C15.7676 5.30528 15.5387 5.4001 15.3 5.4001Z" fill="#8E8E93"/>
<path d="M6.29941 14.4C6.06072 14.4 5.8318 14.3051 5.66302 14.1363C5.49424 13.9676 5.39941 13.7386 5.39941 13.5V8.09995C5.39941 7.86126 5.49424 7.63234 5.66302 7.46356C5.8318 7.29477 6.06072 7.19995 6.29941 7.19995C6.53811 7.19995 6.76703 7.29477 6.93581 7.46356C7.10459 7.63234 7.19941 7.86126 7.19941 8.09995V13.5C7.19941 13.7386 7.10459 13.9676 6.93581 14.1363C6.76703 14.3051 6.53811 14.4 6.29941 14.4Z" fill="white"/>
<path d="M9.89902 14.4C9.66033 14.4 9.43141 14.3051 9.26263 14.1363C9.09384 13.9676 8.99902 13.7386 8.99902 13.5V8.09995C8.99902 7.86126 9.09384 7.63234 9.26263 7.46356C9.43141 7.29477 9.66033 7.19995 9.89902 7.19995C10.1377 7.19995 10.3666 7.29477 10.5354 7.46356C10.7042 7.63234 10.799 7.86126 10.799 8.09995V13.5C10.799 13.7386 10.7042 13.9676 10.5354 14.1363C10.3666 14.3051 10.1377 14.4 9.89902 14.4Z" fill="white"/>
</svg>
