<svg width="11" height="12" viewBox="0 0 11 12" fill="none" xmlns="http://www.w3.org/2000/svg">
<path d="M7.25033 1.33317H3.75033C3.59562 1.33317 3.44724 1.27171 3.33785 1.16232C3.22845 1.05292 3.16699 0.904547 3.16699 0.749837C3.16699 0.595128 3.22845 0.446754 3.33785 0.337358C3.44724 0.227962 3.59562 0.166504 3.75033 0.166504H7.25033C7.40504 0.166504 7.55341 0.227962 7.6628 0.337358C7.7722 0.446754 7.83366 0.595128 7.83366 0.749837C7.83366 0.904547 7.7722 1.05292 7.6628 1.16232C7.55341 1.27171 7.40504 1.33317 7.25033 1.33317Z" fill="#DB1F26"/>
<path d="M7.25033 11.8333H3.75033C3.13149 11.8333 2.53799 11.5875 2.10041 11.1499C1.66282 10.7123 1.41699 10.1188 1.41699 9.5V2.5H9.58366V9.5C9.58366 10.1188 9.33783 10.7123 8.90024 11.1499C8.46266 11.5875 7.86916 11.8333 7.25033 11.8333Z" fill="#DB1F26"/>
<path d="M10.1667 3.66667H0.833333C0.678624 3.66667 0.530251 3.60521 0.420854 3.49581C0.311458 3.38642 0.25 3.23804 0.25 3.08333C0.25 2.92862 0.311458 2.78025 0.420854 2.67085C0.530251 2.56146 0.678624 2.5 0.833333 2.5H10.1667C10.3214 2.5 10.4697 2.56146 10.5791 2.67085C10.6885 2.78025 10.75 2.92862 10.75 3.08333C10.75 3.23804 10.6885 3.38642 10.5791 3.49581C10.4697 3.60521 10.3214 3.66667 10.1667 3.66667Z" fill="#DB1F26"/>
<path d="M4.33333 9.49967C4.17862 9.49967 4.03025 9.43822 3.92085 9.32882C3.81146 9.21942 3.75 9.07105 3.75 8.91634V5.41634C3.75 5.26163 3.81146 5.11326 3.92085 5.00386C4.03025 4.89447 4.17862 4.83301 4.33333 4.83301C4.48804 4.83301 4.63642 4.89447 4.74581 5.00386C4.85521 5.11326 4.91667 5.26163 4.91667 5.41634V8.91634C4.91667 9.07105 4.85521 9.21942 4.74581 9.32882C4.63642 9.43822 4.48804 9.49967 4.33333 9.49967Z" fill="white"/>
<path d="M6.66634 9.49967C6.51163 9.49967 6.36326 9.43822 6.25386 9.32882C6.14447 9.21942 6.08301 9.07105 6.08301 8.91634V5.41634C6.08301 5.26163 6.14447 5.11326 6.25386 5.00386C6.36326 4.89447 6.51163 4.83301 6.66634 4.83301C6.82105 4.83301 6.96942 4.89447 7.07882 5.00386C7.18822 5.11326 7.24967 5.26163 7.24967 5.41634V8.91634C7.24967 9.07105 7.18822 9.21942 7.07882 9.32882C6.96942 9.43822 6.82105 9.49967 6.66634 9.49967Z" fill="white"/>
</svg>
