<svg width="119" height="118" viewBox="0 0 119 118" fill="none" xmlns="http://www.w3.org/2000/svg">
<path d="M9.19311 20.9305C10.6046 15.132 15.132 10.6046 20.9305 9.19311C45.745 3.15257 71.6464 3.15257 96.4609 9.19311C102.259 10.6046 106.787 15.132 108.198 20.9305C114.239 45.745 114.239 71.6464 108.198 96.4609C106.787 102.259 102.259 106.787 96.4609 108.198C71.6464 114.239 45.745 114.239 20.9305 108.198C15.132 106.787 10.6046 102.259 9.19311 96.4609C3.15257 71.6464 3.15257 45.745 9.19311 20.9305Z" fill="#F2F9FF"/>
<mask id="mask0_510_4173" style="mask-type:alpha" maskUnits="userSpaceOnUse" x="5" y="4" width="109" height="109">
<path d="M10.4275 20.9305C11.839 15.132 16.3664 10.6046 22.1649 9.19311C46.9794 3.15257 72.8808 3.15257 97.6953 9.19311C103.494 10.6046 108.021 15.132 109.433 20.9305C115.473 45.745 115.473 71.6464 109.433 96.4609C108.021 102.259 103.494 106.787 97.6953 108.198C72.8808 114.239 46.9794 114.239 22.1649 108.198C16.3663 106.787 11.839 102.259 10.4275 96.4609C4.38694 71.6464 4.38694 45.745 10.4275 20.9305Z" fill="#F2F9FF"/>
</mask>
<g mask="url(#mask0_510_4173)">
<path opacity="0.2" d="M75.3895 31.6654C78.12 35.488 75.3895 46.7632 75.3895 46.7632L75.3831 46.7696H76.4753C77.3843 57.3156 72.8454 58.5909 72.8454 58.5909C71.2071 68.4141 69.5688 64.2317 69.5688 66.7758C69.5688 69.3199 71.2071 68.4141 71.2071 68.4141C71.2071 68.4141 72.6591 72.4134 76.2954 73.8686L95.0943 81.4877C100.001 83.4763 103.211 88.2416 103.211 93.5358V116.541H16.6494V93.5366C16.6494 88.242 19.8603 83.4764 24.7674 81.4881L43.5717 73.8686C47.208 72.4134 48.66 68.4141 48.66 68.4141C48.66 68.4141 50.2982 69.3199 50.2982 66.7758C50.2982 64.2317 48.66 68.4141 47.0217 58.5909C47.0217 58.5909 42.4795 57.3156 43.3918 46.7696L44.4743 46.4034C43.5653 44.5884 42.6562 36.0309 42.6562 34.7588C42.6562 33.4867 44.4743 28.3985 45.5665 27.3063C46.6523 26.2141 49.3827 26.0342 49.3827 26.0342C49.3827 24.7589 53.0191 22.3979 57.3878 22.2116C61.7533 22.0253 59.5657 21.6623 65.5695 23.4836C71.5733 25.305 72.6591 27.8492 75.3895 31.6654Z" fill="#18ABE3"/>
</g>
</svg>
