<svg width="18" height="18" viewBox="0 0 18 18" fill="none" xmlns="http://www.w3.org/2000/svg">
<path fill-rule="evenodd" clip-rule="evenodd" d="M4.5 1.8C3.00883 1.8 1.8 3.00883 1.8 4.5V13.5C1.8 14.9912 3.00883 16.2 4.5 16.2H13.5C14.9912 16.2 16.2 14.9912 16.2 13.5V8.1C16.2 7.60293 16.6029 7.2 17.1 7.2C17.5971 7.2 18 7.60293 18 8.1V13.5C18 15.9853 15.9853 18 13.5 18H4.5C2.01472 18 0 15.9853 0 13.5V4.5C0 2.01472 2.01472 0 4.5 0H9.9C10.3971 0 10.8 0.402948 10.8 0.9C10.8 1.39705 10.3971 1.8 9.9 1.8H4.5Z" fill="#8E8E93"/>
<path fill-rule="evenodd" clip-rule="evenodd" d="M13.6944 0.738792C14.1675 0.265752 14.8091 0 15.4781 0C16.147 0 16.7885 0.265752 17.2616 0.738792C17.7346 1.21183 18.0004 1.85341 18.0004 2.52239C18.0004 3.19136 17.7346 3.83295 17.2616 4.30599L16.5568 5.01081C16.2053 5.36229 15.6355 5.36229 15.284 5.01081L12.9896 2.71642C12.6381 2.36494 12.6381 1.7951 12.9896 1.44362L13.6944 0.738792ZM11.7168 3.9892C11.3653 3.63773 10.7954 3.63773 10.444 3.9892L6.42881 8.00442C6.31347 8.11971 6.23165 8.26425 6.19209 8.42247L5.42728 11.4818C5.3506 11.7884 5.44047 12.1128 5.66401 12.3364C5.88755 12.56 6.212 12.6498 6.5187 12.5731L9.57792 11.8084C9.73614 11.7688 9.88068 11.687 9.99597 11.5716L14.0112 7.5564C14.3627 7.20495 14.3627 6.63508 14.0112 6.28361L11.7168 3.9892Z" fill="#8E8E93"/>
</svg>
