<svg width="12" height="12" viewBox="0 0 12 12" fill="none" xmlns="http://www.w3.org/2000/svg">
<path fill-rule="evenodd" clip-rule="evenodd" d="M3.08366 1.33317C2.11716 1.33317 1.33366 2.11667 1.33366 3.08317V8.9165C1.33366 9.88303 2.11716 10.6665 3.08366 10.6665H8.91699C9.88352 10.6665 10.667 9.88303 10.667 8.9165V5.4165C10.667 5.09433 10.9282 4.83317 11.2503 4.83317C11.5725 4.83317 11.8337 5.09433 11.8337 5.4165V8.9165C11.8337 10.5273 10.5278 11.8332 8.91699 11.8332H3.08366C1.47283 11.8332 0.166992 10.5273 0.166992 8.9165V3.08317C0.166992 1.47234 1.47283 0.166504 3.08366 0.166504H6.58366C6.90583 0.166504 7.16699 0.427674 7.16699 0.749837C7.16699 1.072 6.90583 1.33317 6.58366 1.33317H3.08366Z" fill="black"/>
<path fill-rule="evenodd" clip-rule="evenodd" d="M9.04276 0.645351C9.34936 0.338751 9.76522 0.166504 10.1988 0.166504C10.6324 0.166504 11.0482 0.338751 11.3548 0.645351C11.6614 0.95195 11.8337 1.36779 11.8337 1.80138C11.8337 2.23498 11.6614 2.65082 11.3548 2.95742L10.898 3.41425C10.6702 3.64206 10.3008 3.64206 10.073 3.41425L8.58589 1.92714C8.3581 1.69933 8.3581 1.32999 8.58589 1.10218L9.04276 0.645351ZM7.76094 2.7521C7.53315 2.52429 7.16379 2.52429 6.93599 2.7521L4.33356 5.35455C4.2588 5.42928 4.20577 5.52296 4.18013 5.62551L3.68442 7.60838C3.63472 7.80712 3.69297 8.01741 3.83786 8.16231C3.98275 8.30721 4.19303 8.36543 4.39182 8.31573L6.37465 7.82007C6.4772 7.7944 6.57089 7.74138 6.64561 7.66659L9.24809 5.06417C9.47589 4.83638 9.47589 4.46702 9.24809 4.23921L7.76094 2.7521Z" fill="black"/>
</svg>
