<svg width="65" height="66" viewBox="0 0 65 66" fill="none" xmlns="http://www.w3.org/2000/svg">
<g clip-path="url(#clip0_437_2961)">
<path d="M45.421 42.7353C46.6729 42.7353 47.6877 41.7066 47.6877 40.4376C47.6877 39.1686 46.6729 38.1398 45.421 38.1398C44.1691 38.1398 43.1543 39.1686 43.1543 40.4376C43.1543 41.7066 44.1691 42.7353 45.421 42.7353Z" fill="#333333"/>
<path d="M34.087 54.913H16.1801C13.6804 54.913 11.6467 52.8515 11.6467 50.3175V31.4762C11.6467 28.9422 13.6804 26.8807 16.1801 26.8807H48.8206C51.3203 26.8807 53.354 28.9422 53.354 31.4762V36.0716C53.354 37.3407 54.3688 38.3694 55.6207 38.3694C56.8726 38.3694 57.8874 37.3407 57.8874 36.0716V31.4762C57.8874 26.4083 53.82 22.2853 48.8206 22.2853H46.0964V14.1819C46.0964 6.74058 39.9953 0.686644 32.4962 0.686644C24.997 0.686644 18.8959 6.74058 18.8959 14.1819V22.2853H16.1801C11.1807 22.2853 7.11328 26.4083 7.11328 31.4762V50.3175C7.11328 55.3854 11.1807 59.5084 16.1801 59.5084H34.087C35.3389 59.5084 36.3537 58.4797 36.3537 57.2107C36.3537 55.9417 35.3389 54.913 34.087 54.913ZM23.4293 14.1819C23.4293 9.27451 27.4967 5.2821 32.4962 5.2821C37.4956 5.2821 41.563 9.27451 41.563 14.1819V22.2853H23.4293V14.1819Z" fill="#333333"/>
<path d="M36.8067 42.7353C38.0586 42.7353 39.0734 41.7066 39.0734 40.4376C39.0734 39.1686 38.0586 38.1398 36.8067 38.1398C35.5549 38.1398 34.54 39.1686 34.54 40.4376C34.54 41.7066 35.5549 42.7353 36.8067 42.7353Z" fill="#333333"/>
<path d="M19.8067 42.7353C21.0586 42.7353 22.0734 41.7066 22.0734 40.4376C22.0734 39.1686 21.0586 38.1398 19.8067 38.1398C18.5549 38.1398 17.54 39.1686 17.54 40.4376C17.54 41.7066 18.5549 42.7353 19.8067 42.7353Z" fill="#333333"/>
<path d="M28.3067 42.7353C29.5586 42.7353 30.5734 41.7066 30.5734 40.4376C30.5734 39.1686 29.5586 38.1398 28.3067 38.1398C27.0549 38.1398 26.04 39.1686 26.04 40.4376C26.04 41.7066 27.0549 42.7353 28.3067 42.7353Z" fill="#333333"/>
<path d="M53.1573 63.4757C53.1573 64.6025 52.2562 65.516 51.1446 65.516C50.033 65.516 49.1318 64.6025 49.1318 63.4757C49.1318 62.3489 50.033 61.4354 51.1446 61.4354C52.2562 61.4354 53.1573 62.3489 53.1573 63.4757Z" fill="#18ABE3"/>
<path fill-rule="evenodd" clip-rule="evenodd" d="M51.1479 60.3605C52.1151 60.3605 52.8992 59.5658 52.8992 58.5853V58.5045C52.8992 56.8591 53.7259 55.3423 55.0697 54.5274L55.0697 54.5274C56.7807 53.4898 57.8875 51.7199 57.8875 49.6563C57.8875 46.4035 55.3035 43.7523 52.0755 43.7523C49.7391 43.7523 47.3517 44.9505 45.4757 47.1374C44.841 47.8773 44.9182 48.9985 45.648 49.6419C46.3779 50.2852 47.484 50.207 48.1187 49.4671C49.463 47.9 50.9401 47.3027 52.0755 47.3027C53.3534 47.3027 54.385 48.3484 54.385 49.6563C54.385 50.3479 54.034 51.0182 53.2715 51.4806C50.8198 52.9674 49.3967 55.6716 49.3967 58.5045V58.5853C49.3967 59.5658 50.1807 60.3605 51.1479 60.3605Z" fill="#18ABE3"/>
</g>
<defs>
<clipPath id="clip0_437_2961">
<rect width="65" height="65" fill="white" transform="translate(0 0.516113)"/>
</clipPath>
</defs>
</svg>
