<svg width="47" height="34" viewBox="0 0 47 34" fill="none" xmlns="http://www.w3.org/2000/svg">
<path d="M42.2653 0.495728H4.7347C2.36848 0.495728 0.5 2.41748 0.5 4.73042V29.2697C0.5 31.6358 2.42176 33.5043 4.7347 33.5043H42.2653C44.6315 33.5043 46.5 31.5826 46.5 29.2696V4.73042C46.5 2.36412 44.5782 0.495728 42.2653 0.495728ZM20.613 27.7304H9.06507C8.32081 27.7304 7.71742 27.127 7.71742 26.3828C7.71742 23.8083 9.09059 21.5487 11.1429 20.2976C10.3599 19.4208 9.88274 18.2653 9.88274 17.0001C9.88274 14.2672 12.1061 12.0437 14.8391 12.0437C17.572 12.0437 19.7955 14.2672 19.7955 17.0001C19.7955 18.2654 19.3183 19.4209 18.5352 20.2976C20.5875 21.5488 21.9607 23.8085 21.9607 26.3829C21.9606 27.127 21.3572 27.7304 20.613 27.7304ZM35.0479 27.7304H27.8305C27.0862 27.7304 26.4828 27.127 26.4828 26.3828C26.4828 25.6385 27.0862 25.0351 27.8305 25.0351H35.0479C35.7922 25.0351 36.3955 25.6385 36.3955 26.3828C36.3955 27.127 35.7922 27.7304 35.0479 27.7304ZM37.9349 21.9564H27.8305C27.0862 21.9564 26.4828 21.353 26.4828 20.6088C26.4828 19.8645 27.0862 19.2611 27.8305 19.2611H37.9349C38.6792 19.2611 39.2826 19.8645 39.2826 20.6088C39.2826 21.353 38.6792 21.9564 37.9349 21.9564ZM37.9349 16.1824H27.8305C27.0862 16.1824 26.4828 15.5791 26.4828 14.8348C26.4828 14.0905 27.0862 13.4871 27.8305 13.4871H37.9349C38.6792 13.4871 39.2826 14.0905 39.2826 14.8348C39.2826 15.5791 38.6792 16.1824 37.9349 16.1824ZM37.9349 8.96494H9.06507C8.32081 8.96494 7.71742 8.36155 7.71742 7.61728C7.71742 6.87302 8.32081 6.26962 9.06507 6.26962H37.9349C38.6792 6.26962 39.2826 6.87302 39.2826 7.61728C39.2826 8.36155 38.6792 8.96494 37.9349 8.96494Z" fill="#009427"/>
</svg>
