<svg width="32" height="32" viewBox="0 0 32 32" fill="none" xmlns="http://www.w3.org/2000/svg">
<rect width="32" height="32" rx="2.75" fill="white"/>
<path d="M20.8032 13.912C21.4997 13.912 22.1962 13.8871 22.8679 13.912C23.1664 13.912 23.2907 13.8374 23.3654 13.514C23.7385 11.6733 24.1614 9.8325 24.5594 7.96687C24.6091 7.71812 24.7086 7.59375 24.9822 7.61863C26.3006 7.6435 27.6439 7.6435 28.9622 7.61863C29.2607 7.61863 29.3354 7.6435 29.2607 7.99175C28.6886 10.6036 28.1165 13.2404 27.5692 15.8771C26.9971 18.5388 26.425 21.2004 25.8529 23.8869C25.7782 24.26 25.6539 24.3844 25.231 24.3844C23.9624 24.3595 22.7186 24.3595 21.45 24.3844C21.1266 24.3844 21.0271 24.3346 21.1017 23.9864C21.5495 21.9218 21.9972 19.8323 22.445 17.7676C22.5196 17.4443 22.4201 17.3945 22.1465 17.3945C20.7286 17.3945 19.3107 17.3945 17.868 17.3945C17.5944 17.3945 17.4949 17.4691 17.4451 17.7428C17.0471 19.7328 16.5994 21.7228 16.2014 23.7376C16.077 24.3595 16.077 24.3595 15.4054 24.3595C14.1865 24.3595 12.9427 24.3595 11.7239 24.3595C11.4254 24.3595 11.3507 24.3098 11.4254 23.9864C11.8482 22.0959 12.2462 20.1805 12.6691 18.29C13.1915 15.8025 13.7139 13.3399 14.2611 10.8524C14.4601 9.85738 14.7089 8.88725 14.9079 7.89225C14.9576 7.66837 15.0322 7.59375 15.2561 7.59375C16.6242 7.59375 17.9924 7.59375 19.3605 7.59375C19.6092 7.59375 19.659 7.6435 19.6092 7.89225C19.2112 9.6335 18.863 11.3996 18.465 13.1409C18.266 13.912 18.266 13.912 18.9874 13.912C19.5844 13.912 20.2062 13.912 20.8032 13.912Z" fill="#DA1F26"/>
<path d="M4.03711 11.6235C7.19623 11.4245 10.3554 11.2255 13.5145 11.0016C13.5145 11.0763 13.5394 11.0763 13.5394 11.1011C13.1911 12.5936 13.4896 12.2951 12.1215 12.2205C9.43498 12.0713 6.74848 11.8971 4.06198 11.723C4.03711 11.6733 4.03711 11.6484 4.03711 11.6235Z" fill="#DA2027"/>
<path d="M4.70847 8.31514C7.24572 8.16589 9.80784 8.01664 12.3451 7.84252C12.8675 7.81764 13.3898 7.76789 13.9122 7.69327C14.1858 7.66839 14.2853 7.69327 14.2107 7.99177C14.0117 8.96189 14.0117 8.98677 13.0167 8.91214C10.4048 8.76289 7.81784 8.56389 5.20597 8.41464C5.03184 8.41464 4.85772 8.36489 4.68359 8.34002C4.70847 8.34002 4.70847 8.31514 4.70847 8.31514Z" fill="#DA2027"/>
<path d="M1.5 23.7127C2.54475 23.6381 3.5895 23.5635 4.63425 23.4889C6.64913 23.3645 8.68888 23.2401 10.7038 23.0909C10.9525 23.066 11.0023 23.1157 10.9525 23.3894C10.7038 24.4092 10.7038 24.4092 9.7585 24.3595C7.072 24.1356 4.3855 23.9615 1.699 23.7874C1.62438 23.7874 1.57463 23.7625 1.5 23.7625C1.5 23.7376 1.5 23.7127 1.5 23.7127Z" fill="#DA2027"/>
<path d="M3.26562 14.5588C4.80788 14.3349 6.32525 14.2851 7.8675 14.1856C9.38488 14.0861 10.9271 14.0115 12.4445 13.8871C12.7679 13.8623 12.7928 13.9866 12.743 14.2354C12.5689 15.1558 12.5689 15.1558 11.6236 15.106C8.81275 14.907 6.02675 14.7329 3.26562 14.5588Z" fill="#DA2027"/>
<path d="M2.71883 20.5536C5.35558 20.4044 7.99233 20.2303 10.6042 20.081C10.8032 20.0561 11.0271 20.0561 11.2261 20.0313C11.4748 20.0064 11.5246 20.081 11.4748 20.3298C11.251 21.2999 11.251 21.2999 10.2311 21.2253C7.86795 21.076 5.47995 20.9268 3.11683 20.7775C2.86808 20.678 2.61933 20.8024 2.3457 20.7029C2.4452 20.5039 2.61933 20.6283 2.71883 20.5536Z" fill="#DA2027"/>
<path d="M4.36075 17.3945C6.7985 17.2453 9.23625 17.096 11.674 16.9468C12.0471 16.9219 12.0969 16.9965 11.9974 17.3697C11.7735 18.1905 11.7984 18.1905 10.9526 18.1408C8.63925 17.9915 6.32588 17.8423 4.0125 17.693C3.8135 17.6184 3.6145 17.7179 3.39062 17.5935C3.714 17.3697 4.06225 17.494 4.36075 17.3945Z" fill="#DA2027"/>
<path d="M4.35966 17.3945C4.08603 17.4691 3.81241 17.5189 3.51391 17.5935C3.66316 17.693 3.86216 17.5686 4.01141 17.7179C3.46416 17.7676 2.94178 17.693 2.39453 17.5438C3.06616 17.494 3.71291 17.3696 4.35966 17.3945Z" fill="#DA2027"/>
<path d="M2.71847 20.5536C2.64384 20.5785 2.54434 20.6282 2.46972 20.678C2.69359 20.7775 2.94234 20.6531 3.14134 20.8024C2.74334 20.8024 2.32047 20.8024 1.92247 20.8024C1.84784 20.8024 1.72347 20.8024 1.72347 20.7029C1.69859 20.5536 1.84784 20.5785 1.92247 20.5785C2.17122 20.5536 2.44484 20.5536 2.71847 20.5536Z" fill="#DA2027"/>
</svg>
