<svg width="22" height="18" viewBox="0 0 22 18" fill="none" xmlns="http://www.w3.org/2000/svg">
<path d="M0 2C0 0.89543 0.89543 0 2 0H20C21.1046 0 22 0.89543 22 2C22 3.10457 21.1046 4 20 4H2C0.89543 4 0 3.10457 0 2Z" fill="#BDBDBD"/>
<path d="M0 9C0 7.8954 0.89543 7 2 7H20C21.1046 7 22 7.8954 22 9C22 10.1046 21.1046 11 20 11H2C0.89543 11 0 10.1046 0 9Z" fill="#BDBDBD"/>
<path d="M2 14C0.89543 14 0 14.8954 0 16C0 17.1046 0.89543 18 2 18H20C21.1046 18 22 17.1046 22 16C22 14.8954 21.1046 14 20 14H2Z" fill="#BDBDBD"/>
</svg>
