<svg width="88" height="91" viewBox="0 0 88 91" fill="none" xmlns="http://www.w3.org/2000/svg">
<path opacity="0.2" d="M59.3895 9.66537C62.12 13.488 59.3895 24.7632 59.3895 24.7632L59.3831 24.7696H60.4753C61.3843 35.3156 56.8454 36.5909 56.8454 36.5909C55.2071 46.4141 53.5688 42.2317 53.5688 44.7758C53.5688 47.3199 55.2071 46.4141 55.2071 46.4141C55.2071 46.4141 56.6591 50.4134 60.2954 51.8686L79.0943 59.4877C84.0008 61.4763 87.2112 66.2416 87.2112 71.5358V94.5407H0.649414V71.5366C0.649414 66.242 3.86035 61.4764 8.76736 59.4881L27.5717 51.8686C31.208 50.4134 32.66 46.4141 32.66 46.4141C32.66 46.4141 34.2982 47.3199 34.2982 44.7758C34.2982 42.2317 32.66 46.4141 31.0217 36.5909C31.0217 36.5909 26.4795 35.3156 27.3918 24.7696L28.4743 24.4034C27.5653 22.5884 26.6562 14.0309 26.6562 12.7588C26.6562 11.4867 28.4743 6.39846 29.5665 5.30628C30.6523 4.2141 33.3827 4.03421 33.3827 4.03421C33.3827 2.75893 37.0191 0.397887 41.3878 0.211574C45.7533 0.0252608 43.5657 -0.337729 49.5695 1.48364C55.5733 3.30502 56.6591 5.84916 59.3895 9.66537Z" fill="#18ABE3"/>
</svg>
