<svg width="63" height="62" viewBox="0 0 63 62" fill="none" xmlns="http://www.w3.org/2000/svg">
<g clip-path="url(#clip0_437_3132)">
<path d="M48.7971 27.9557C45.9879 27.9557 43.2418 27.1359 40.9061 25.6C38.5704 24.0641 36.7499 21.8811 35.6749 19.3269C34.5999 16.7728 34.3186 13.9623 34.8667 11.2509C35.4147 8.53947 36.7674 6.04885 38.7538 4.09402C40.7402 2.13918 43.271 0.807919 46.0261 0.26858C48.7813 -0.270758 51.6371 0.00604975 54.2324 1.064C56.8277 2.12195 59.046 3.91353 60.6067 6.21217C62.1673 8.51082 63.0004 11.2133 63.0004 13.9779C62.9961 17.6837 61.4983 21.2366 58.8356 23.8571C56.1729 26.4775 52.5627 27.9515 48.7971 27.9557ZM48.7971 2.42187C46.4746 2.42187 44.2044 3.09962 42.2734 4.36941C40.3423 5.63919 38.8373 7.44399 37.9485 9.55557C37.0598 11.6671 36.8272 13.9907 37.2803 16.2323C37.7334 18.4739 38.8518 20.533 40.494 22.1492C42.1362 23.7653 44.2284 24.8659 46.5062 25.3118C48.784 25.7577 51.145 25.5288 53.2907 24.6542C55.4363 23.7795 57.2702 22.2984 58.5605 20.398C59.8507 18.4976 60.5394 16.2634 60.5394 13.9779C60.5358 10.9141 59.2976 7.97684 57.0962 5.81044C54.8949 3.64403 51.9102 2.4254 48.7971 2.42187Z" fill="#18ABE3"/>
<path d="M47.0493 19.0577C46.723 19.0577 46.4101 18.93 46.1794 18.7029L41.8112 14.4102C41.6937 14.2985 41.5999 14.1648 41.5354 14.0171C41.471 13.8694 41.437 13.7105 41.4356 13.5497C41.4342 13.3889 41.4653 13.2294 41.5272 13.0806C41.589 12.9318 41.6804 12.7966 41.7959 12.6829C41.9115 12.5692 42.0489 12.4793 42.2001 12.4184C42.3513 12.3575 42.5133 12.3269 42.6767 12.3283C42.8401 12.3297 43.0015 12.3631 43.1517 12.4265C43.3018 12.49 43.4376 12.5822 43.5511 12.6979L47.0493 16.1406L54.0421 9.25278C54.1556 9.13712 54.2913 9.04487 54.4415 8.9814C54.5916 8.91794 54.753 8.88453 54.9164 8.88314C55.0798 8.88174 55.2418 8.91238 55.3931 8.97327C55.5443 9.03415 55.6817 9.12407 55.7972 9.23777C55.9127 9.35146 56.0041 9.48667 56.066 9.63549C56.1278 9.78431 56.159 9.94376 56.1575 10.1046C56.1561 10.2653 56.1222 10.4242 56.0577 10.572C55.9932 10.7197 55.8995 10.8533 55.7819 10.965L47.9192 18.7029C47.6885 18.93 47.3756 19.0577 47.0493 19.0577Z" fill="#18ABE3"/>
<path d="M52.2949 62H5.76844C4.23905 61.9984 2.77277 61.3998 1.69133 60.3355C0.609896 59.2712 0.00162857 57.8282 0 56.3231L0 30.6682C0.00164685 29.7775 0.215444 28.8995 0.624233 28.1048C1.03302 27.3101 1.62542 26.6207 2.35389 26.0921L7.30898 22.5089C7.57202 22.3186 7.90108 22.239 8.2238 22.2874C8.54651 22.3359 8.83644 22.5086 9.0298 22.7674C9.22315 23.0263 9.3041 23.3501 9.25483 23.6677C9.20557 23.9853 9.03012 24.2706 8.76709 24.4609L3.81445 28.0441C3.39614 28.347 3.0558 28.7421 2.82074 29.1978C2.58568 29.6535 2.46245 30.1571 2.46094 30.6682V56.3231C2.46191 57.1861 2.8107 58.0135 3.43076 58.6237C4.05083 59.2339 4.89153 59.5772 5.76844 59.5781H52.2949C53.1718 59.5772 54.0125 59.2339 54.6326 58.6237C55.2527 58.0135 55.6014 57.1861 55.6024 56.3231V30.6682C55.6009 30.1571 55.4777 29.6535 55.2426 29.1978C55.0076 28.7421 54.6672 28.347 54.2489 28.0441L52.6641 26.8961C52.4168 26.7008 52.2557 26.419 52.2144 26.1096C52.1731 25.8002 52.2547 25.4871 52.4423 25.2355C52.6299 24.9839 52.9089 24.8133 53.2212 24.7592C53.5335 24.7052 53.8549 24.7718 54.1185 24.9453L55.7045 26.0933C56.433 26.6219 57.0254 27.3113 57.4342 28.106C57.843 28.9007 58.0568 29.7787 58.0584 30.6694V56.3231C58.0568 57.8274 57.4492 59.2697 56.3688 60.3338C55.2885 61.3979 53.8235 61.9971 52.2949 62Z" fill="#333333"/>
<path d="M55.2861 60.8859C55.024 60.886 54.7688 60.8036 54.5576 60.651L34.8849 46.4261C34.6219 46.236 34.4464 45.9508 34.397 45.6334C34.3476 45.3159 34.4284 44.9921 34.6216 44.7332C34.8148 44.4744 35.1046 44.3017 35.4272 44.2531C35.7498 44.2045 36.0788 44.284 36.3418 44.4741L56.0157 58.699C56.2248 58.8501 56.3801 59.0624 56.4592 59.3055C56.5384 59.5487 56.5374 59.8102 56.4565 60.0528C56.3755 60.2953 56.2188 60.5065 56.0086 60.6562C55.7984 60.8058 55.5455 60.8862 55.2861 60.8859Z" fill="#333333"/>
<path d="M2.77184 60.8859C2.51242 60.8862 2.25954 60.8058 2.04934 60.6562C1.83914 60.5065 1.68238 60.2953 1.60145 60.0528C1.52052 59.8102 1.51956 59.5487 1.59871 59.3055C1.67786 59.0624 1.83308 58.8501 2.04218 58.699L21.7161 44.4741C21.9792 44.284 22.3082 44.2045 22.6308 44.2531C22.9534 44.3017 23.2431 44.4744 23.4363 44.7332C23.6295 44.9921 23.7103 45.3159 23.6609 45.6334C23.6116 45.9508 23.436 46.236 23.173 46.4261L3.49905 60.651C3.28847 60.8039 3.03355 60.8863 2.77184 60.8859Z" fill="#333333"/>
<path d="M29.0295 50.645C27.7006 50.6476 26.4117 50.198 25.3811 49.3723L0.888652 29.6958C0.758542 29.597 0.649878 29.4734 0.569077 29.3326C0.488276 29.1917 0.436976 29.0363 0.418205 28.8756C0.399435 28.7149 0.413574 28.5521 0.459789 28.3969C0.506004 28.2416 0.583357 28.0971 0.687281 27.9717C0.791205 27.8464 0.919594 27.7428 1.06487 27.6671C1.21014 27.5914 1.36935 27.5452 1.5331 27.531C1.69685 27.5169 1.86181 27.5352 2.01826 27.5848C2.1747 27.6345 2.31945 27.7145 2.44396 27.8201L26.9364 47.4954C27.5281 47.9673 28.2666 48.2248 29.0282 48.2248C29.7899 48.2248 30.5283 47.9673 31.12 47.4954L55.6174 27.8201C55.7424 27.7177 55.8867 27.6407 56.042 27.5935C56.1974 27.5463 56.3607 27.5299 56.5226 27.5452C56.6844 27.5605 56.8416 27.6072 56.985 27.6826C57.1283 27.758 57.2551 27.8607 57.358 27.9846C57.4608 28.1085 57.5377 28.2513 57.5841 28.4046C57.6306 28.558 57.6457 28.7188 57.6286 28.878C57.6115 29.0371 57.5625 29.1913 57.4844 29.3317C57.4064 29.472 57.3009 29.5958 57.174 29.6958L32.6877 49.3711C31.6549 50.1997 30.362 50.65 29.0295 50.645Z" fill="#333333"/>
<path d="M8.03711 35.0881C7.71077 35.0881 7.39779 34.9605 7.16704 34.7334C6.93628 34.5064 6.80664 34.1984 6.80664 33.8772V10.5352C6.80859 9.02994 7.41714 7.58693 8.49877 6.52269C9.5804 5.45846 11.0468 4.85988 12.5763 4.85828H38.6069C38.9332 4.85828 39.2462 4.98586 39.4769 5.21296C39.7077 5.44005 39.8373 5.74806 39.8373 6.06922C39.8373 6.39038 39.7077 6.69839 39.4769 6.92548C39.2462 7.15257 38.9332 7.28016 38.6069 7.28016H12.5763C11.6993 7.28112 10.8585 7.62432 10.2382 8.23451C9.61794 8.8447 9.26888 9.67206 9.26758 10.5352V33.8772C9.26758 34.1984 9.13794 34.5064 8.90718 34.7334C8.67642 34.9605 8.36345 35.0881 8.03711 35.0881Z" fill="#333333"/>
<path d="M27.1764 13.3651H14.8213C14.4949 13.3651 14.182 13.2375 13.9512 13.0104C13.7205 12.7833 13.5908 12.4753 13.5908 12.1542C13.5908 11.833 13.7205 11.525 13.9512 11.2979C14.182 11.0708 14.4949 10.9432 14.8213 10.9432H27.1764C27.5028 10.9432 27.8157 11.0708 28.0465 11.2979C28.2773 11.525 28.4069 11.833 28.4069 12.1542C28.4069 12.4753 28.2773 12.7833 28.0465 13.0104C27.8157 13.2375 27.5028 13.3651 27.1764 13.3651Z" fill="#333333"/>
<path d="M24.037 20.0519H14.1446C13.9977 20.0519 13.8569 19.9243 13.753 19.6972C13.6492 19.4701 13.5908 19.1621 13.5908 18.841C13.5908 18.5198 13.6492 18.2118 13.753 17.9847C13.8569 17.7576 13.9977 17.63 14.1446 17.63H24.037C24.1839 17.63 24.3248 17.7576 24.4286 17.9847C24.5325 18.2118 24.5908 18.5198 24.5908 18.841C24.5908 19.1621 24.5325 19.4701 24.4286 19.6972C24.3248 19.9243 24.1839 20.0519 24.037 20.0519Z" fill="#333333"/>
<path d="M30.8735 26.7399H14.3081C14.1179 26.7399 13.9354 26.6123 13.8009 26.3852C13.6664 26.1582 13.5908 25.8501 13.5908 25.529C13.5908 25.2078 13.6664 24.8998 13.8009 24.6727C13.9354 24.4456 14.1179 24.318 14.3081 24.318H30.8735C31.0638 24.318 31.2462 24.4456 31.3807 24.6727C31.5152 24.8998 31.5908 25.2078 31.5908 25.529C31.5908 25.8501 31.5152 26.1582 31.3807 26.3852C31.2462 26.6123 31.0638 26.7399 30.8735 26.7399Z" fill="#333333"/>
<path d="M43.2377 33.4219H14.8213C14.4949 33.4219 14.182 33.2943 13.9512 33.0672C13.7205 32.8401 13.5908 32.5321 13.5908 32.2109C13.5908 31.8898 13.7205 31.5818 13.9512 31.3547C14.182 31.1276 14.4949 31 14.8213 31H43.2377C43.5641 31 43.8771 31.1276 44.1078 31.3547C44.3386 31.5818 44.4682 31.8898 44.4682 32.2109C44.4682 32.5321 44.3386 32.8401 44.1078 33.0672C43.8771 33.2943 43.5641 33.4219 43.2377 33.4219Z" fill="#333333"/>
<path d="M43.2377 40.1147H14.8213C14.4949 40.1147 14.182 39.9871 13.9512 39.7601C13.7205 39.533 13.5908 39.225 13.5908 38.9038C13.5908 38.5826 13.7205 38.2746 13.9512 38.0475C14.182 37.8204 14.4949 37.6929 14.8213 37.6929H43.2377C43.5641 37.6929 43.8771 37.8204 44.1078 38.0475C44.3386 38.2746 44.4682 38.5826 44.4682 38.9038C44.4682 39.225 44.3386 39.533 44.1078 39.7601C43.8771 39.9871 43.5641 40.1147 43.2377 40.1147Z" fill="#333333"/>
</g>
<defs>
<clipPath id="clip0_437_3132">
<rect width="63" height="62" fill="white"/>
</clipPath>
</defs>
</svg>
