<svg xmlns="http://www.w3.org/2000/svg" fill="none" viewBox="3.78 1.51 16.45 20.98">
<path d="M17.054 12.0625C15.3062 12.0625 13.8848 13.4845 13.8848 15.2318C13.8848 15.9815 14.795 17.3381 15.6745 18.6498C15.994 19.1264 16.3199 19.6118 16.6126 20.083C16.7789 20.3513 16.9355 20.6152 17.0745 20.8703C17.2077 20.6191 17.3579 20.3605 17.5184 20.0971C17.5184 20.0966 17.5189 20.0966 17.5189 20.0966C17.5228 20.0888 17.5272 20.081 17.5326 20.0737C17.8272 19.5918 18.1555 19.0952 18.4774 18.6069C19.336 17.3069 20.2238 15.963 20.2238 15.2318C20.2233 13.4849 18.8013 12.0625 17.054 12.0625ZM17.054 17.124C16.0106 17.124 15.1618 16.2752 15.1618 15.2318C15.1618 14.1884 16.0106 13.3401 17.054 13.3401C18.0974 13.3401 18.9462 14.1884 18.9462 15.2318C18.9462 16.2752 18.0974 17.124 17.054 17.124Z" fill="#BDBDBD"/>
<path d="M18.4494 15.2315C18.4494 16.0008 17.8236 16.6267 17.0543 16.6267C16.285 16.6267 15.6592 16.0008 15.6592 15.2315C15.6592 14.4628 16.285 13.8369 17.0543 13.8369C17.8236 13.8369 18.4494 14.4628 18.4494 15.2315Z" fill="#BDBDBD"/>
<path d="M18.5011 21.421C18.5011 22.0088 17.8621 22.4873 17.0767 22.4873C16.2914 22.4873 15.6523 22.0093 15.6523 21.421C15.6523 21.1298 15.8148 20.8547 16.0875 20.6571H16.088C16.1538 20.6088 16.2255 20.5659 16.3031 20.5278C16.5148 20.8761 16.7036 21.2137 16.8523 21.5278C16.8938 21.6142 16.9811 21.6693 17.0772 21.6693H17.0782C17.1748 21.6693 17.2621 21.6127 17.3031 21.5254C17.4489 21.2103 17.6343 20.8727 17.8426 20.5234C18.2475 20.7186 18.5011 21.0561 18.5011 21.421Z" fill="#BDBDBD"/>
<path d="M10.9032 13.2479C10.9032 13.9484 10.5042 14.5781 9.87147 15.0103C9.32855 15.3821 8.61342 15.6084 7.83098 15.6084C6.13684 15.6084 4.75879 14.5494 4.75879 13.2479C4.75879 12.3342 5.46123 11.4967 6.52903 11.1094L6.76464 11.606C6.00172 11.9245 5.50708 12.5689 5.50708 13.2767C5.50708 14.3133 6.55001 15.1567 7.83147 15.1567C9.11342 15.1567 10.1559 14.3133 10.1559 13.2767C10.1559 12.5621 9.6544 11.9142 8.88123 11.5986L9.11098 11.1016C10.1915 11.484 10.9032 12.325 10.9032 13.2479Z" fill="#BDBDBD"/>
<path d="M9.65756 13.2766C9.65756 14.0391 8.83805 14.6596 7.83025 14.6596C6.82293 14.6596 6.00293 14.0391 6.00293 13.2766C6.00293 12.7659 6.38683 12.2942 6.97659 12.0561L7.60537 13.3835C7.64683 13.4698 7.73415 13.5249 7.83025 13.5249H7.83171C7.9283 13.5244 8.01561 13.4683 8.0561 13.3805L8.67122 12.0498C9.26927 12.2869 9.65756 12.761 9.65756 13.2766Z" fill="#BDBDBD"/>
<path d="M7.80222 1.51172C5.58222 1.51172 3.77637 3.31757 3.77637 5.53757C3.77637 7.09611 4.69003 8.52928 6.10417 9.18782C6.15637 9.21269 6.19881 9.25465 6.22368 9.30684L6.85149 10.6317C6.87832 10.6595 6.89881 10.6937 6.91003 10.7332C6.91393 10.7459 6.91637 10.759 6.91783 10.7712L7.32954 11.64L7.82807 12.6912L8.31588 11.6371L8.71832 10.7664C8.71929 10.7537 8.72222 10.74 8.72564 10.7273C8.73686 10.6888 8.75686 10.6542 8.78271 10.6264L9.3949 9.30196C9.41929 9.24879 9.46173 9.20635 9.51442 9.18099C10.9198 8.51952 11.8271 7.08928 11.8271 5.53757C11.8271 3.31757 10.0217 1.51172 7.80222 1.51172ZM7.80222 8.80782C5.99832 8.80782 4.531 7.3405 4.531 5.53708C4.531 3.73318 5.99832 2.26587 7.80222 2.26587C9.60564 2.26587 11.073 3.73318 11.073 5.53708C11.073 7.3405 9.60564 8.80782 7.80222 8.80782Z" fill="#BDBDBD"/>
<path d="M10.5761 5.53782C10.5761 7.06709 9.33222 8.31148 7.80247 8.31148C6.2732 8.31148 5.02832 7.06757 5.02832 5.53782C5.02832 4.00855 6.27271 2.76367 7.80247 2.76367C9.33173 2.76367 10.5761 4.00806 10.5761 5.53782Z" fill="#BDBDBD"/>
<path d="M10.4054 15.2246L15.9649 20.1456C15.8122 20.2324 15.6776 20.3373 15.5649 20.4553L9.99023 15.5212C10.138 15.4314 10.2766 15.3324 10.4054 15.2246Z" fill="#BDBDBD"/>
</svg>