<svg xmlns="http://www.w3.org/2000/svg" fill="none" viewBox="3 3 19 19">
<path d="M20.8083 3H16.953V7.00967C16.953 7.77731 16.06 8.24029 15.437 7.76567L13.8259 6.56239L12.2189 7.76567C11.6168 8.2244 10.703 7.8061 10.703 7.00967V3H6.83975C6.18664 3 5.65625 3.56998 5.65625 4.26267V12.4166C6.28559 12.1553 6.97828 12.0089 7.69865 12.0089C10.6159 12.0089 12.9908 14.3838 12.9908 17.301C12.9908 17.685 12.9512 18.061 12.8721 18.4251H20.8083C21.4693 18.4251 21.9997 17.8591 21.9997 17.1625V4.26267C21.9997 3.56998 21.4693 3 20.8083 3ZM19.5456 15.8721C19.5456 16.0977 19.3635 16.2798 19.1379 16.2798H15.7457C15.5201 16.2798 15.338 16.0977 15.338 15.8721V14.1107C15.338 13.8851 15.5201 13.703 15.7457 13.703H19.1379C19.3635 13.703 19.5456 13.8851 19.5456 14.1107V15.8721Z" fill="#BDBDBD"/>
<path d="M11.8616 7.29128L13.6149 5.97793C13.7406 5.88378 13.9133 5.88378 14.0389 5.97793L15.7923 7.29128C16.0255 7.46593 16.358 7.29955 16.358 7.00821V3.00195H11.2959V7.00821C11.2959 7.29955 11.6284 7.46593 11.8616 7.29128Z" fill="#BDBDBD"/>
<path d="M7.69844 12.6035C5.10357 12.6035 3 14.7071 3 17.302C3 19.8969 5.10357 22.0005 7.69844 22.0005C10.2934 22.0005 12.3969 19.8969 12.3969 17.302C12.3969 14.7071 10.2934 12.6035 7.69844 12.6035ZM7.39326 13.6319C7.39326 13.4643 7.52807 13.3254 7.6997 13.3254C7.86717 13.3254 8.00613 13.4643 8.00613 13.6319V14.1017C8.00613 14.2733 7.86717 14.4081 7.6997 14.4081C7.52807 14.4081 7.39326 14.2733 7.39326 14.1017V13.6319ZM4.50056 17.6072H4.02671C3.85909 17.6072 3.72028 17.4723 3.72028 17.3008C3.72028 17.1333 3.85909 16.9943 4.02671 16.9943H4.50056C4.66813 16.9943 4.807 17.1333 4.807 17.3008C4.807 17.4723 4.66813 17.6072 4.50056 17.6072ZM8.00613 20.9737C8.00613 21.1413 7.86717 21.2802 7.6997 21.2802C7.52807 21.2802 7.39326 21.1413 7.39326 20.9737V20.4998C7.39326 20.3323 7.52807 20.1934 7.6997 20.1934C7.86717 20.1934 8.00613 20.3323 8.00613 20.4998V20.9737ZM9.37884 17.6072H8.16132C8.04691 17.836 7.81402 17.9912 7.5444 17.9912C7.16443 17.9912 6.858 17.6807 6.858 17.3008C6.858 17.1864 6.88665 17.0802 6.93559 16.9861L5.73035 15.3233C5.63236 15.1844 5.66097 14.9965 5.79983 14.8943C5.93464 14.7963 6.12666 14.8249 6.2288 14.9638L7.43404 16.6226C7.47086 16.6185 7.50763 16.6144 7.5444 16.6144C7.81402 16.6144 8.04691 16.7696 8.15722 16.9943H9.37884C9.54641 16.9943 9.68527 17.1333 9.68527 17.3008C9.68527 17.4683 9.54641 17.6072 9.37884 17.6072ZM11.675 17.3008C11.675 17.4723 11.536 17.6072 11.3686 17.6072H10.8987C10.7271 17.6072 10.5923 17.4723 10.5923 17.3008C10.5923 17.1333 10.7271 16.9943 10.8987 16.9943H11.3686C11.536 16.9943 11.675 17.1333 11.675 17.3008Z" fill="#BDBDBD"/>
</svg>