<svg width="15" height="17" viewBox="0 0 15 17" fill="none" xmlns="http://www.w3.org/2000/svg">
<mask id="mask0_1863_13653" style="mask-type:luminance" maskUnits="userSpaceOnUse" x="0" y="10" width="15" height="7">
<path fill-rule="evenodd" clip-rule="evenodd" d="M0.903564 10.6943H14.1035V16.8393H0.903564V10.6943Z" fill="white"/>
</mask>
<g mask="url(#mask0_1863_13653)">
<path fill-rule="evenodd" clip-rule="evenodd" d="M7.5044 11.9443C3.95356 11.9443 2.15356 12.5543 2.15356 13.7585C2.15356 14.9735 3.95356 15.5893 7.5044 15.5893C11.0544 15.5893 12.8536 14.9793 12.8536 13.7752C12.8536 12.5602 11.0544 11.9443 7.5044 11.9443ZM7.5044 16.8393C5.8719 16.8393 0.903564 16.8393 0.903564 13.7585C0.903564 11.0118 4.67106 10.6943 7.5044 10.6943C9.1369 10.6943 14.1036 10.6943 14.1036 13.7752C14.1036 16.5218 10.3369 16.8393 7.5044 16.8393Z" fill="#19191A"/>
</g>
<mask id="mask1_1863_13653" style="mask-type:luminance" maskUnits="userSpaceOnUse" x="3" y="0" width="9" height="10">
<path fill-rule="evenodd" clip-rule="evenodd" d="M3.07837 0.281006H11.9284V9.12984H3.07837V0.281006Z" fill="white"/>
</mask>
<g mask="url(#mask1_1863_13653)">
<path fill-rule="evenodd" clip-rule="evenodd" d="M7.50423 1.47067C5.72006 1.47067 4.2684 2.9215 4.2684 4.70567C4.26256 6.484 5.7034 7.934 7.48006 7.94067L7.50423 8.53567V7.94067C9.28756 7.94067 10.7384 6.489 10.7384 4.70567C10.7384 2.9215 9.28756 1.47067 7.50423 1.47067ZM7.50423 9.12984H7.47756C5.04256 9.12234 3.07006 7.1365 3.0784 4.70317C3.0784 2.26567 5.0634 0.28067 7.50423 0.28067C9.94423 0.28067 11.9284 2.26567 11.9284 4.70567C11.9284 7.14567 9.94423 9.12984 7.50423 9.12984Z" fill="#19191A"/>
</g>
</svg>
