<svg width="46" height="34" viewBox="0 0 46 34" fill="none" xmlns="http://www.w3.org/2000/svg">
<path d="M2.706 0.426392H29.7648C31.2592 0.426392 32.4707 1.63784 32.4707 3.1323V15.3087H8.7738e-05V3.1323C8.7738e-05 1.63793 1.21154 0.426392 2.706 0.426392ZM39.9118 26.1323H32.4706C32.4706 27.6268 31.2592 28.8382 29.7647 28.8382H24.353C24.353 25.4758 21.6272 22.75 18.2647 22.75C17.0131 22.75 15.8498 23.1276 14.8823 23.7752C13.915 23.1276 12.7517 22.75 11.5001 22.75C8.1376 22.75 5.41182 25.4757 5.41182 28.8382H2.70591C1.21145 28.8382 0 27.6268 0 26.1323V18.0147H32.4706V23.4264H44.647C45.3943 23.4264 46 24.0321 46 24.7793C46 25.5266 45.3943 26.1323 44.647 26.1323H42.6177V28.1617C42.6177 28.9089 42.0119 29.5147 41.2647 29.5147C40.5175 29.5147 39.9117 28.9089 39.9117 28.1617L39.9118 26.1323ZM14.8824 25.5242C15.7419 24.6471 16.9398 24.1029 18.2648 24.1029C20.88 24.1029 23.0001 26.223 23.0001 28.8382C23.0001 31.4535 20.88 33.5735 18.2648 33.5735C16.9398 33.5735 15.7419 33.0293 14.8824 32.1523C14.023 33.0293 12.8251 33.5735 11.5001 33.5735C8.88492 33.5735 6.76478 31.4535 6.76478 28.8382C6.76478 26.223 8.88483 24.1029 11.5001 24.1029C12.8251 24.1029 14.023 24.6471 14.8824 25.5242ZM11.5001 30.8676C12.6209 30.8676 13.5295 29.959 13.5295 28.8382C13.5295 27.7174 12.6209 26.8087 11.5001 26.8087C10.3793 26.8087 9.4707 27.7173 9.4707 28.8381C9.4707 29.9589 10.3793 30.8676 11.5001 30.8676ZM18.2648 30.8676C19.3856 30.8676 20.2942 29.959 20.2942 28.8382C20.2942 27.7174 19.3856 26.8088 18.2648 26.8088C17.144 26.8088 16.2354 27.7174 16.2354 28.8382C16.2354 29.959 17.144 30.8676 18.2648 30.8676Z" fill="#934BFA"/>
</svg>
