<svg width="17" height="17" viewBox="0 0 17 17" fill="none" xmlns="http://www.w3.org/2000/svg">
<g clip-path="url(#clip0_7_32)">
<mask id="mask0_7_32" style="mask-type:luminance" maskUnits="userSpaceOnUse" x="0" y="0" width="17" height="17">
<path d="M17 0H0V17H17V0Z" fill="white"/>
</mask>
<g mask="url(#mask0_7_32)">
<path d="M6.55204 0H1.23954C0.556023 0 0 0.556023 0 1.23954V4.42704C0 5.11069 0.556023 5.66671 1.23954 5.66671H6.55204C7.23569 5.66671 7.79171 5.11069 7.79171 4.42704V1.23954C7.79171 0.556023 7.23569 0 6.55204 0Z" fill="#BDBDBD"/>
<path d="M6.55204 7.08325H1.23954C0.556023 7.08325 0 7.63927 0 8.32292V15.7604C0 16.4439 0.556023 17 1.23954 17H6.55204C7.23569 17 7.79171 16.4439 7.79171 15.7604V8.32292C7.79171 7.63927 7.23569 7.08325 6.55204 7.08325Z" fill="#BDBDBD"/>
<path d="M15.7602 11.3333H10.4477C9.76403 11.3333 9.20801 11.8893 9.20801 12.5729V15.7604C9.20801 16.4439 9.76403 17 10.4477 17H15.7602C16.4437 17 16.9997 16.4439 16.9997 15.7604V12.5729C16.9997 11.8893 16.4437 11.3333 15.7602 11.3333Z" fill="#BDBDBD"/>
<path d="M15.7602 0H10.4477C9.76403 0 9.20801 0.556023 9.20801 1.23954V8.67704C9.20801 9.36069 9.76403 9.91671 10.4477 9.91671H15.7602C16.4437 9.91671 16.9997 9.36069 16.9997 8.67704V1.23954C16.9997 0.556023 16.4437 0 15.7602 0Z" fill="#BDBDBD"/>
</g>
</g>
<defs>
<clipPath id="clip0_7_32">
<rect width="17" height="17" fill="white"/>
</clipPath>
</defs>
</svg>
