<svg width="20" height="15" viewBox="0 0 20 15" fill="none" xmlns="http://www.w3.org/2000/svg">
<path d="M18.3333 0H1.66675C0.75025 0 0 0.75025 0 1.66675V13.3333C0 14.2498 0.75025 15 1.66675 15H18.3333C19.2498 15 20 14.2498 20 13.3333V1.66675C20 0.75025 19.2498 0 18.3333 0ZM5.83325 3.33325C6.75475 3.33325 7.5 4.0795 7.5 5C7.5 5.9205 6.75475 6.66675 5.83325 6.66675C4.912 6.66675 4.16675 5.9205 4.16675 5C4.16675 4.0795 4.912 3.33325 5.83325 3.33325ZM9.16675 11.6667H2.5V10.0007C2.5 9.08025 3.247 8.33425 4.16675 8.33425L7.5 8.33325C8.42125 8.33325 9.16675 9.0795 9.16675 10V11.6667ZM17.5 11.6667H10.8333V10H17.5V11.6667ZM17.5 8.33325H10.8333V6.66675H17.5V8.33325ZM17.5 5H9.16675V3.33325H17.5V5Z" fill="#BDBDBD"/>
</svg>
