<!DOCTYPE svg PUBLIC "-//W3C//DTD SVG 1.1//EN" "http://www.w3.org/Graphics/SVG/1.1/DTD/svg11.dtd">
<!-- Uploaded to: SVG Repo, www.svgrepo.com, Transformed by: SVG Repo Mixer Tools -->
<svg version="1.1" id="Icons" xmlns="http://www.w3.org/2000/svg" xmlns:xlink="http://www.w3.org/1999/xlink" viewBox="0 0 32 32" xml:space="preserve" width="800px" height="800px" fill="#000000">
<g id="SVGRepo_bgCarrier" stroke-width="0"/>
<g id="SVGRepo_tracerCarrier" stroke-linecap="round" stroke-linejoin="round"/>
<g id="SVGRepo_iconCarrier"> <style type="text/css"> .st0{fill:none;stroke:#BDBDBD;stroke-width:2;stroke-linecap:round;stroke-linejoin:round;stroke-miterlimit:10;} .st1{fill:none;stroke:#BDBDBD;stroke-width:2;stroke-linecap:round;stroke-linejoin:round;} .st2{fill:none;stroke:#BDBDBD;stroke-width:2;stroke-linecap:round;stroke-linejoin:round;stroke-dasharray:5.2066,0;} </style> <path class="st0" d="M21,11h6c1.1,0,2,0.9,2,2v14c0,1.1-0.9,2-2,2H5c-1.1,0-2-0.9-2-2V13c0-1.1,0.9-2,2-2h6"/> <polyline class="st0" points="8,16 16,23 24,16 "/> <line class="st0" x1="12.6" y1="20" x2="8" y2="24"/> <line class="st0" x1="24" y1="24" x2="19.4" y2="20"/> <path class="st0" d="M12.5,5.6L12.5,5.6c-1.4,0-2.5,1.2-2.5,2.6v0c0,1.4,1.1,2.6,2.5,2.6h0c2.2,0,4.4,0.5,6.4,1.5l2,1V7.5V3l-2,1 C17,5,14.8,5.6,12.5,5.6z"/> <polyline class="st0" points="11,10.2 13.4,15 15.9,15 15.9,5.6 "/> </g>
</svg>