<svg width="123" height="28" viewBox="0 0 123 28" fill="none" xmlns="http://www.w3.org/2000/svg">
<path d="M17.1686 25.5964C17.1686 26.3976 16.9397 26.9985 16.4819 27.3991C16.024 27.7997 15.2228 28 14.1355 28C13.0195 28 12.2469 27.7997 11.8177 27.3991C11.3599 26.9985 11.1596 26.3976 11.1596 25.5964V20.1024H6.00901V25.5964C6.00901 26.3976 5.7801 26.9985 5.32227 27.3991C4.86444 27.7997 4.06324 28 2.97589 28C1.85993 28 1.08735 27.7997 0.65813 27.3991C0.200301 26.9985 0 26.3976 0 25.5964V10.4308C0 9.6582 0.228915 9.0573 0.686745 8.6567C1.14457 8.2561 1.91716 8.02718 3.03312 8.02718C4.12047 8.02718 4.89305 8.2561 5.35088 8.6567C5.7801 9.0573 6.00901 9.6582 6.00901 10.4308V15.4955H11.1596V10.4308C11.1596 9.6582 11.3885 9.0573 11.8463 8.6567C12.3042 8.2561 13.0768 8.02718 14.1927 8.02718C15.2801 8.02718 16.0527 8.2561 16.5105 8.6567C16.9397 9.0573 17.1686 9.6582 17.1686 10.4308V25.5964Z" fill="black"/>
<path d="M37.8703 19.5015C37.8703 20.9323 37.7273 22.1627 37.4697 23.2214C37.1836 24.3088 36.7258 25.1958 36.0676 25.8825C35.3809 26.5979 34.4938 27.1416 33.3493 27.4849C32.2047 27.8283 30.7454 28 29.0285 28C27.283 28 25.8523 27.8283 24.7363 27.4849C23.6204 27.1416 22.7333 26.5979 22.1038 25.8825C21.4457 25.1958 20.9879 24.3088 20.7589 23.2214C20.5014 22.1627 20.387 20.9323 20.387 19.5015V10.3449C20.387 9.57236 20.6159 8.97146 21.0737 8.57086C21.5315 8.17026 22.3041 7.94135 23.4201 7.94135C24.5074 7.94135 25.28 8.17026 25.7378 8.57086C26.1671 8.97146 26.396 9.57236 26.396 10.3449V19.5015C26.396 20.8178 26.5677 21.7621 26.9683 22.3916C27.3403 23.0211 28.0556 23.3073 29.143 23.3073C30.2017 23.3073 30.917 23.0211 31.289 22.3916C31.661 21.7621 31.8613 20.8178 31.8613 19.5015V10.3449C31.8613 9.57236 32.0902 8.97146 32.5481 8.57086C33.0059 8.17026 33.7785 7.94135 34.8944 7.94135C35.9818 7.94135 36.7544 8.17026 37.2122 8.57086C37.6414 8.97146 37.8703 9.57236 37.8703 10.3449V19.5015Z" fill="black"/>
<path d="M59.2875 24.9955C59.2875 25.4819 59.2016 25.9112 59.0872 26.2831C58.9441 26.6551 58.7152 26.9699 58.3718 27.2274C58.0284 27.4849 57.542 27.6852 56.9697 27.7997C56.3974 27.9428 55.6535 28 54.795 28C53.8507 28 53.0782 27.9428 52.4773 27.7997C51.8477 27.6566 51.3613 27.4563 50.9607 27.1702C50.5601 26.884 50.274 26.5407 50.045 26.1115C49.8161 25.7109 49.6158 25.2244 49.4441 24.6521L46.0676 13.3495V25.5106C46.0676 26.3118 45.8673 26.9127 45.4954 27.3133C45.0948 27.7139 44.4652 27.9142 43.5496 27.9142C42.6339 27.9142 41.9758 27.7139 41.6324 27.3133C41.2604 26.9127 41.0887 26.3118 41.0887 25.5106V10.86C41.0887 10.4022 41.146 9.97296 41.289 9.60097C41.4035 9.22899 41.661 8.91423 42.0044 8.6567C42.3478 8.39917 42.8056 8.19887 43.3779 8.0558C43.9502 7.94134 44.6655 7.8555 45.5812 7.8555C46.4969 7.8555 47.2694 7.94134 47.899 8.08441C48.4999 8.22749 48.9863 8.42779 49.3869 8.71393C49.7875 9.00007 50.1023 9.34345 50.3312 9.74405C50.5601 10.1733 50.7604 10.6597 50.9321 11.2034L54.3086 22.506V10.3449C54.3086 9.57236 54.4803 8.97146 54.8809 8.57086C55.2529 8.17026 55.911 7.94134 56.8266 7.94134C57.7423 7.94134 58.3718 8.17026 58.7438 8.57086C59.0872 8.97146 59.2875 9.57236 59.2875 10.3449V24.9955Z" fill="black"/>
<path d="M79.1022 27.5422C79.5886 27.2561 79.8462 26.8554 79.8462 26.3976C79.8462 26.0829 79.7603 25.7395 79.5886 25.3675C79.4169 24.9955 79.188 24.6235 78.9305 24.2229L71.4472 17.9868C69.6978 16.5289 68.6527 14.3947 68.5735 12.1189L68.5149 10.4308C68.5149 9.65822 68.286 9.05732 67.8567 8.65672C67.3989 8.25612 66.6263 8.02721 65.539 8.02721C64.423 8.02721 63.6504 8.25612 63.1926 8.65672C62.7348 9.05732 62.5059 9.65822 62.5059 10.4308V25.5964C62.5059 26.3976 62.7062 26.9985 63.164 27.3991C63.5932 27.7997 64.3658 28 65.4818 28C66.5691 28 67.3703 27.7997 67.8281 27.3991C68.286 26.9985 68.5149 26.3976 68.5149 25.5964V18.9293L72.6926 25.7395C72.8929 26.0829 73.1218 26.3976 73.3507 26.6838C73.5796 26.9699 73.8658 27.1988 74.2091 27.3991C74.5239 27.5994 74.8959 27.7425 75.3251 27.857C75.7257 27.9714 76.2121 28 76.7844 28C77.8145 28 78.5871 27.857 79.1022 27.5422Z" fill="black"/>
<path d="M72.8668 16.5167C70.8369 16.166 69.8562 13.8275 71.0288 12.1338L72.893 9.44105C73.3508 8.78292 73.8373 8.29647 74.4096 7.9531C74.9819 7.63834 75.6972 7.46666 76.5557 7.46666C77.5858 7.46666 78.3011 7.60973 78.7017 7.86726C79.1023 8.12479 79.3313 8.46816 79.3313 8.92599C79.3313 9.21213 79.1882 9.58412 78.9593 10.0419C78.7304 10.4998 78.4728 10.9004 78.2153 11.2438L74.6725 15.8158C74.2466 16.3655 73.552 16.6351 72.8668 16.5167V16.5167Z" fill="black"/>
<path fill-rule="evenodd" clip-rule="evenodd" d="M88.7426 8.2847H86.3838C85.1534 8.2847 84.2949 8.51361 83.8085 8.97144C83.2934 9.42927 83.0645 10.0588 83.0645 10.9172V25.5964C83.0645 26.3976 83.2648 26.9985 83.7226 27.3991C84.1519 27.7997 84.9244 28 86.0404 28C87.1277 28 87.929 27.7997 88.3868 27.3991C88.8446 26.9985 89.0735 26.3976 89.0735 25.5964V21.0467H91.0193L93.7949 26.512C94.0524 27.0271 94.4244 27.3991 94.8822 27.628C95.3401 27.8855 95.9982 28 96.8566 28C97.9726 28 98.8024 27.8855 99.3461 27.628C99.8611 27.3991 100.147 26.884 100.147 26.0828C100.147 25.9111 100.09 25.6822 99.9756 25.4247C99.9184 25.3102 99.8683 25.1958 99.8182 25.0813C99.7681 24.9669 99.7181 24.8524 99.6608 24.738L96.9425 19.9307C97.2572 19.7591 97.6006 19.5301 97.9726 19.244C98.316 18.9579 98.6593 18.6145 98.9741 18.1853C99.2888 17.756 99.5464 17.241 99.7467 16.6115C99.947 15.982 100.061 15.238 100.061 14.3509C100.061 12.3479 99.4319 10.8314 98.1729 9.80126C96.9139 8.79976 95.1112 8.2847 92.7362 8.2847H90.5331C90.306 8.38497 90.097 8.5344 89.9175 8.72545C89.706 8.95061 89.5407 9.22784 89.434 9.53673C89.3272 9.84562 89.2817 10.1783 89.3007 10.5103C89.3197 10.8423 89.4027 11.1651 89.5437 11.455C89.6848 11.7448 89.8801 11.9944 90.1155 12.1853C90.2815 12.3199 90.4644 12.4229 90.6573 12.491H91.7919C92.5645 12.491 93.1368 12.6913 93.5088 13.0919C93.8521 13.4925 94.0524 14.0076 94.0524 14.6943C94.0524 15.3811 93.8521 15.9533 93.4515 16.3539C93.0509 16.7832 92.4786 16.9835 91.706 16.9835H89.0735V12.887C88.8699 12.6551 88.6947 12.3905 88.5537 12.1007C88.3293 11.6393 88.1971 11.1256 88.1669 10.5973C88.1366 10.0689 88.2091 9.53949 88.379 9.04791C88.4729 8.77629 88.5952 8.52007 88.7426 8.2847Z" fill="black"/>
<path d="M107.313 27.738C107.637 27.9125 107.999 28.0026 108.367 27.9999C109.166 27.9999 110.008 27.5996 110.604 26.8723L121.542 13.5965C122.193 12.8052 122.367 11.823 121.995 11.0333C121.667 10.3377 120.978 9.92261 120.153 9.92261H115.494L117.733 2.64924C117.935 1.993 117.831 1.31816 117.447 0.798086C117.259 0.546535 117.014 0.343068 116.733 0.204374C116.451 0.0656796 116.141 -0.00429012 115.827 0.000203544H109.866C108.827 0.000203544 107.851 0.737931 107.548 1.75511L103.461 15.4465C103.266 16.1 103.373 16.7705 103.757 17.2851C103.946 17.5345 104.19 17.736 104.471 17.8732C104.751 18.0104 105.06 18.0795 105.373 18.0748H108.718L106.434 25.2831C106.109 26.3074 106.455 27.2715 107.313 27.738ZM108.415 25.9103L111.128 17.3496C111.177 17.1939 111.189 17.0288 111.163 16.8677C111.136 16.7065 111.072 16.5539 110.976 16.4222C110.879 16.2904 110.753 16.1833 110.607 16.1095C110.462 16.0356 110.3 15.9972 110.137 15.9972H105.465L109.539 2.35174C109.584 2.20135 109.755 2.07831 109.868 2.07831H115.734L113.094 10.656C113.046 10.8114 113.035 10.9759 113.062 11.1362C113.09 11.2965 113.154 11.4481 113.251 11.5789C113.347 11.7097 113.473 11.816 113.619 11.8893C113.764 11.9626 113.924 12.0007 114.087 12.0007H120.096C120.062 12.1012 120.008 12.1941 119.939 12.2741L109.001 25.55C108.783 25.8157 108.552 25.9021 108.414 25.9169C108.413 25.9158 108.415 25.9131 108.415 25.9103Z" fill="#E10E0E"/>
</svg>
