<svg width="19" height="19" viewBox="0 0 19 19" fill="none" xmlns="http://www.w3.org/2000/svg">
<g clip-path="url(#clip0_494_2115)">
<path d="M12.7621 1.5271L4.14002 5.94143L0.712891 4.25518L9.18293 0.0728037C9.37293 -0.0237796 9.60093 -0.0237796 9.80043 0.0728037L12.7621 1.5271Z" fill="#BDBDBD"/>
<path d="M18.2778 4.25522L9.50456 8.60147L6.21914 6.98251L5.74414 6.74106L14.3757 2.32751L14.8507 2.56818L18.2778 4.25522Z" fill="#BDBDBD"/>
<path d="M8.80175 9.85382L8.79225 18.9999L0.3895 14.6149C0.152 14.4898 0 14.2389 0 13.9689V5.50757L3.56092 7.2619V10.3462C3.56092 10.7413 3.88392 11.069 4.27342 11.069C4.66292 11.069 4.98592 10.7413 4.98592 10.3462V7.97519L5.46092 8.20636L8.80175 9.85382Z" fill="#BDBDBD"/>
<path d="M18.99 5.51709L10.2263 9.84434L10.2168 18.9905L18.9995 14.4043L18.99 5.51709Z" fill="#BDBDBD"/>
</g>
<defs>
<clipPath id="clip0_494_2115">
<rect width="19" height="19" fill="white"/>
</clipPath>
</defs>
</svg>
