<svg width="20" height="16" viewBox="0 0 20 16" fill="none" xmlns="http://www.w3.org/2000/svg">
<path d="M1.17652 0.794067H12.9412C13.591 0.794067 14.1177 1.32079 14.1177 1.97055V7.26465H3.8147e-05V1.97055C3.8147e-05 1.32082 0.526756 0.794067 1.17652 0.794067ZM17.353 11.9706H14.1177C14.1177 12.6203 13.5909 13.147 12.9412 13.147H10.5882C10.5882 11.6851 9.40312 10.5 7.94117 10.5C7.39699 10.5 6.89121 10.6641 6.47058 10.9457C6.05 10.6641 5.54422 10.5 5.00004 10.5C3.53808 10.5 2.35297 11.6851 2.35297 13.147H1.17648C0.526718 13.147 0 12.6203 0 11.9706V8.44114H14.1177V10.7941H19.4118C19.7366 10.7941 20 11.0574 20 11.3823C20 11.7072 19.7366 11.9706 19.4118 11.9706H18.5294V12.8529C18.5294 13.1778 18.2661 13.4411 17.9412 13.4411C17.6163 13.4411 17.3529 13.1778 17.3529 12.8529L17.353 11.9706ZM6.47062 11.7061C6.8443 11.3248 7.36512 11.0882 7.94121 11.0882C9.07824 11.0882 10 12.01 10 13.147C10 14.2841 9.07828 15.2059 7.94121 15.2059C7.36512 15.2059 6.8443 14.9693 6.47062 14.5879C6.09695 14.9693 5.57613 15.2059 5.00004 15.2059C3.86301 15.2059 2.94121 14.2841 2.94121 13.147C2.94121 12.01 3.86297 11.0882 5.00004 11.0882C5.57613 11.0882 6.09695 11.3248 6.47062 11.7061ZM5.00004 14.0294C5.48734 14.0294 5.88238 13.6343 5.88238 13.147C5.88238 12.6597 5.48734 12.2647 5.00004 12.2647C4.51273 12.2647 4.11769 12.6597 4.11769 13.147C4.11769 13.6343 4.51273 14.0294 5.00004 14.0294ZM7.94121 14.0294C8.42852 14.0294 8.82355 13.6343 8.82355 13.147C8.82355 12.6597 8.42852 12.2647 7.94121 12.2647C7.45391 12.2647 7.05887 12.6597 7.05887 13.147C7.05887 13.6343 7.45391 14.0294 7.94121 14.0294Z" fill="#BDBDBD"/>
</svg>
