<svg width="20" height="28" viewBox="0 0 20 28" fill="none" xmlns="http://www.w3.org/2000/svg">
<path d="M4.31314 27.738C4.63682 27.9125 4.99926 28.0026 5.36696 27.9999C6.16649 27.9999 7.00757 27.5996 7.60421 26.8723L18.5416 13.5965C19.1935 12.8052 19.3674 11.823 18.995 11.0333C18.6668 10.3377 17.9778 9.92261 17.1525 9.92261H12.4938L14.7327 2.64924C14.935 1.993 14.8305 1.31816 14.4466 0.798086C14.2589 0.546535 14.0142 0.343068 13.7327 0.204374C13.4511 0.0656796 13.1407 -0.00429012 12.8268 0.000203544H6.86593C5.82688 0.000203544 4.85126 0.737931 4.54775 1.75511L0.460995 15.4465C0.265763 16.1 0.373496 16.7705 0.757398 17.2851C0.945613 17.5345 1.18999 17.736 1.47068 17.8732C1.75136 18.0104 2.06046 18.0795 2.37285 18.0748H5.71805L3.43378 25.2831C3.10948 26.3074 3.45456 27.2715 4.31314 27.738ZM5.41509 25.9103L8.12811 17.3496C8.17736 17.1939 8.18921 17.0288 8.16271 16.8677C8.13621 16.7065 8.0721 16.5539 7.97558 16.4222C7.87905 16.2904 7.75284 16.1833 7.60717 16.1095C7.46151 16.0356 7.30049 15.9972 7.13718 15.9972H2.46527L6.53945 2.35174C6.58429 2.20135 6.75492 2.07831 6.86757 2.07831H12.7338L10.0936 10.656C10.0457 10.8114 10.035 10.9759 10.0623 11.1362C10.0896 11.2965 10.1542 11.4481 10.2508 11.5789C10.3474 11.7097 10.4734 11.816 10.6185 11.8893C10.7637 11.9626 10.9241 12.0007 11.0867 12.0007H17.0957C17.0617 12.1012 17.0084 12.1941 16.9387 12.2741L6.00133 25.55C5.78258 25.8157 5.55235 25.9021 5.41399 25.9169C5.41345 25.9158 5.41454 25.9131 5.41509 25.9103Z" fill="#E10E0E"/>
</svg>
