<svg width="17" height="15" viewBox="0 0 17 15" fill="none" xmlns="http://www.w3.org/2000/svg">
<path d="M10.2588 2.80229C11.0448 3.29512 11.596 4.12911 11.6963 5.09717C12.0169 5.24695 12.3727 5.33309 12.7499 5.33309C14.127 5.33309 15.2431 4.21694 15.2431 2.84005C15.2431 1.46295 14.127 0.346802 12.7499 0.346802C11.3859 0.347226 10.2796 1.44343 10.2588 2.80229ZM8.62538 7.90717C10.0025 7.90717 11.1186 6.79081 11.1186 5.41392C11.1186 4.03703 10.0023 2.92088 8.62538 2.92088C7.2485 2.92088 6.13171 4.03724 6.13171 5.41413C6.13171 6.79102 7.2485 7.90717 8.62538 7.90717ZM9.68298 8.0771H7.56737C5.80711 8.0771 4.37507 9.50936 4.37507 11.2696V13.8568L4.38164 13.8974L4.55985 13.9532C6.2397 14.478 7.69911 14.6531 8.90034 14.6531C11.2466 14.6531 12.6065 13.9841 12.6903 13.9415L12.8568 13.8573H12.8746V11.2696C12.8753 9.50936 11.4432 8.0771 9.68298 8.0771ZM13.8079 5.50324H11.7086C11.6859 6.34316 11.3274 7.09949 10.7603 7.64346C12.3249 8.10871 13.4697 9.55964 13.4697 11.2734V12.0707C15.5425 11.9948 16.7369 11.4073 16.8156 11.3678L16.9822 11.2834H17V8.69532C17 6.93528 15.568 5.50324 13.8079 5.50324ZM4.25053 5.33351C4.73828 5.33351 5.19208 5.19115 5.5765 4.94866C5.6987 4.15159 6.12598 3.45509 6.73635 2.98071C6.7389 2.93404 6.74335 2.88779 6.74335 2.84069C6.74335 1.46359 5.62699 0.347438 4.25053 0.347438C2.87322 0.347438 1.75728 1.46359 1.75728 2.84069C1.75728 4.21715 2.87322 5.33351 4.25053 5.33351ZM6.48962 7.64346C5.92528 7.10225 5.56801 6.34995 5.54192 5.51512C5.46406 5.50939 5.38705 5.50324 5.3077 5.50324H3.1923C1.43205 5.50324 0 6.93528 0 8.69532V11.283L0.00657681 11.3229L0.184787 11.3791C1.5324 11.7998 2.73511 11.9937 3.77976 12.0548V11.2734C3.78018 9.55964 4.92455 8.10914 6.48962 7.64346Z" fill="#BDBDBD"/>
</svg>
