<svg width="17" height="17" viewBox="0 0 17 17" fill="none" xmlns="http://www.w3.org/2000/svg">
<path d="M2.24023 5.63782H14.7599V8.0393H2.24023V5.63782Z" fill="#BDBDBD"/>
<path d="M2.24023 2.24023H4.61841V4.64175H2.24023V2.24023Z" fill="#BDBDBD"/>
<path d="M5.61426 2.24023H14.7597V4.64175H5.61426V2.24023Z" fill="#BDBDBD"/>
<path d="M2.24023 9.0354V14.7599H14.7599V9.0354H2.24023ZM4.48975 13.5778H3.49365V10.2175H4.48975V13.5778ZM6.73926 13.5778H5.74316V10.2175H6.73926V13.5778ZM8.98877 13.5778H7.99268V10.2175H8.98877V13.5778ZM11.2476 13.5778H10.2515V10.2175H11.2476V13.5778ZM13.4971 13.5778H12.501V10.2175H13.4971V13.5778Z" fill="#BDBDBD"/>
<path d="M15.8179 0H1.1821C0.530287 0 0 0.530287 0 1.1821V15.8179C0 16.4697 0.530287 17 1.1821 17H15.8179C16.4697 17 17 16.4697 17 15.8179V1.1821C17 0.530287 16.4697 0 15.8179 0ZM15.7559 15.7559H1.24409V1.24409H15.7559V15.7559Z" fill="#BDBDBD"/>
</svg>
