<svg width="23" height="20" viewBox="0 0 23 20" fill="none" xmlns="http://www.w3.org/2000/svg">
<path d="M16.3471 3C16.3471 2.40666 16.5247 1.82664 16.8576 1.33329C17.1905 0.839943 17.6636 0.455426 18.2171 0.228363C18.7707 0.00129986 19.3798 -0.0581102 19.9674 0.0576455C20.5551 0.173401 21.0948 0.459124 21.5185 0.878681C21.9422 1.29824 22.2307 1.83279 22.3476 2.41473C22.4645 2.99667 22.4045 3.59987 22.1752 4.14805C21.9459 4.69623 21.5576 5.16477 21.0594 5.49441C20.5613 5.82405 19.9756 6 19.3764 6C18.573 6 17.8025 5.68393 17.2343 5.12132C16.6662 4.55871 16.3471 3.79565 16.3471 3ZM1.20022 4H13.3177C13.5855 4 13.8423 3.89464 14.0317 3.70711C14.2211 3.51957 14.3275 3.26522 14.3275 3C14.3275 2.73478 14.2211 2.48043 14.0317 2.29289C13.8423 2.10536 13.5855 2 13.3177 2H1.20022C0.932406 2 0.675562 2.10536 0.48619 2.29289C0.296818 2.48043 0.19043 2.73478 0.19043 3C0.19043 3.26522 0.296818 3.51957 0.48619 3.70711C0.675562 3.89464 0.932406 4 1.20022 4ZM7.25895 7C6.63395 7.00174 6.02479 7.19488 5.51498 7.55294C5.00518 7.911 4.61968 8.41645 4.41135 9H1.20022C0.932406 9 0.675562 9.10536 0.48619 9.29289C0.296818 9.48043 0.19043 9.73478 0.19043 10C0.19043 10.2652 0.296818 10.5196 0.48619 10.7071C0.675562 10.8946 0.932406 11 1.20022 11H4.41135C4.5966 11.5189 4.92241 11.9773 5.35312 12.3251C5.78384 12.6729 6.30286 12.8966 6.85338 12.9718C7.40391 13.0471 7.96472 12.9709 8.47445 12.7516C8.98417 12.5323 9.42316 12.1784 9.74338 11.7286C10.0636 11.2788 10.2527 10.7504 10.29 10.2013C10.3273 9.65219 10.2113 9.1035 9.95482 8.61528C9.69831 8.12706 9.31112 7.71812 8.83564 7.43323C8.36015 7.14833 7.81469 6.99846 7.25895 7ZM21.396 9H13.3177C13.0499 9 12.793 9.10536 12.6037 9.29289C12.4143 9.48043 12.3079 9.73478 12.3079 10C12.3079 10.2652 12.4143 10.5196 12.6037 10.7071C12.793 10.8946 13.0499 11 13.3177 11H21.396C21.6638 11 21.9207 10.8946 22.11 10.7071C22.2994 10.5196 22.4058 10.2652 22.4058 10C22.4058 9.73478 22.2994 9.48043 22.11 9.29289C21.9207 9.10536 21.6638 9 21.396 9ZM9.27853 16H1.20022C0.932406 16 0.675562 16.1054 0.48619 16.2929C0.296818 16.4804 0.19043 16.7348 0.19043 17C0.19043 17.2652 0.296818 17.5196 0.48619 17.7071C0.675562 17.8946 0.932406 18 1.20022 18H9.27853C9.54634 18 9.80319 17.8946 9.99256 17.7071C10.1819 17.5196 10.2883 17.2652 10.2883 17C10.2883 16.7348 10.1819 16.4804 9.99256 16.2929C9.80319 16.1054 9.54634 16 9.27853 16ZM21.396 16H18.1849C17.9467 15.3328 17.4779 14.7704 16.8616 14.4124C16.2452 14.0543 15.5208 13.9235 14.8165 14.0432C14.1122 14.1629 13.4732 14.5253 13.0126 15.0663C12.552 15.6074 12.2994 16.2923 12.2994 17C12.2994 17.7077 12.552 18.3926 13.0126 18.9337C13.4732 19.4747 14.1122 19.8371 14.8165 19.9568C15.5208 20.0765 16.2452 19.9457 16.8616 19.5876C17.4779 19.2296 17.9467 18.6672 18.1849 18H21.396C21.6638 18 21.9207 17.8946 22.11 17.7071C22.2994 17.5196 22.4058 17.2652 22.4058 17C22.4058 16.7348 22.2994 16.4804 22.11 16.2929C21.9207 16.1054 21.6638 16 21.396 16Z" fill="#333333"/>
</svg>
