<svg width="24.53760000000001" height="19.065600000000003" viewBox="-0.22080000000000108 1.8911999999999989 24.53760000000001 19.065600000000003" fill="none" xmlns="http://www.w3.org/2000/svg">
<g clip-path="url(#clip0_2670_6078)">
<path fill-rule="evenodd" clip-rule="evenodd" d="M10.1071 3.35254C10.0377 3.55561 10 3.7734 10 4V8C10 9.10457 10.8954 10 12 10H16.9412V11.1172H4.57764e-05V4.76432C4.57764e-05 3.98465 0.632107 3.35254 1.41183 3.35254H10.1071ZM16.9412 16.7643H20.8236L20.8235 17.8231C20.8235 18.213 21.1395 18.529 21.5294 18.529C21.9193 18.529 22.2353 18.213 22.2353 17.8231V16.7643H23.2941C23.684 16.7643 24 16.4483 24 16.0584C24 15.6686 23.684 15.3525 23.2941 15.3525H16.9412V12.529H0V16.7643C0 17.544 0.632062 18.1761 1.41178 18.1761H2.82356C2.82356 16.4218 4.2457 14.9996 6.00005 14.9996C6.65306 14.9996 7.26 15.1966 7.7647 15.5345C8.26945 15.1966 8.87639 14.9996 9.52941 14.9996C11.2838 14.9996 12.7059 16.4218 12.7059 18.1761H15.5294C16.3091 18.1761 16.9412 17.544 16.9412 16.7643ZM9.52945 15.7055C8.83814 15.7055 8.21315 15.9894 7.76475 16.447C7.31634 15.9894 6.69136 15.7055 6.00005 15.7055C4.63556 15.7055 3.52945 16.8116 3.52945 18.1761C3.52945 19.5406 4.63561 20.6467 6.00005 20.6467C6.69136 20.6467 7.31634 20.3628 7.76475 19.9052C8.21315 20.3628 8.83814 20.6467 9.52945 20.6467C10.8939 20.6467 12 19.5406 12 18.1761C12 16.8116 10.8939 15.7055 9.52945 15.7055ZM7.05886 18.1761C7.05886 18.7609 6.58481 19.2349 6.00005 19.2349C5.41528 19.2349 4.94123 18.7608 4.94123 18.1761C4.94123 17.5913 5.41528 17.1172 6.00005 17.1172C6.58481 17.1172 7.05886 17.5913 7.05886 18.1761ZM10.5883 18.1761C10.5883 18.7609 10.1142 19.2349 9.52945 19.2349C8.94469 19.2349 8.47064 18.7609 8.47064 18.1761C8.47064 17.5913 8.94469 17.1173 9.52945 17.1173C10.1142 17.1173 10.5883 17.5913 10.5883 18.1761Z" fill="#BDBDBD"></path>
<path d="M18 7.94998C18 7.99594 17.9909 8.04146 17.9733 8.08393C17.9558 8.1264 17.93 8.16499 17.8975 8.19749C17.865 8.22999 17.8264 8.25577 17.7839 8.27336C17.7415 8.29094 17.6959 8.29999 17.65 8.29997H14.4355C14.3642 8.50449 14.231 8.68175 14.0544 8.80718C13.8778 8.93261 13.6666 9 13.45 9C13.2334 9 13.0222 8.93261 12.8456 8.80718C12.669 8.68175 12.5358 8.50449 12.4645 8.29997H11.35C11.2572 8.29997 11.1681 8.2631 11.1025 8.19746C11.0369 8.13182 11 8.0428 11 7.94998C11 7.85715 11.0369 7.76813 11.1025 7.70249C11.1681 7.63685 11.2572 7.59998 11.35 7.59998H12.4645C12.5358 7.39547 12.669 7.21821 12.8456 7.09279C13.0222 6.96736 13.2334 6.89998 13.45 6.89998C13.6666 6.89998 13.8778 6.96736 14.0544 7.09279C14.231 7.21821 14.3642 7.39547 14.4355 7.59998H17.65C17.6959 7.59997 17.7415 7.60901 17.7839 7.6266C17.8264 7.64418 17.865 7.66996 17.8975 7.70246C17.93 7.73496 17.9558 7.77355 17.9733 7.81602C17.9909 7.85849 18 7.90401 18 7.94998ZM17.65 5.14999H16.8855C16.8141 4.94548 16.681 4.76822 16.5044 4.6428C16.3278 4.51737 16.1166 4.44999 15.9 4.44999C15.6834 4.44999 15.4722 4.51737 15.2956 4.6428C15.119 4.76822 14.9858 4.94548 14.9145 5.14999H11.35C11.2572 5.14999 11.1681 5.18686 11.1025 5.2525C11.0369 5.31814 11 5.40716 11 5.49999C11 5.59281 11.0369 5.68184 11.1025 5.74747C11.1681 5.81311 11.2572 5.84998 11.35 5.84998H14.9145C14.9858 6.0545 15.119 6.23176 15.2956 6.35719C15.4722 6.48263 15.6834 6.55001 15.9 6.55001C16.1166 6.55001 16.3278 6.48263 16.5044 6.35719C16.681 6.23176 16.8142 6.0545 16.8855 5.84998H17.65C17.7428 5.84998 17.8318 5.81311 17.8975 5.74747C17.9631 5.68184 18 5.59281 18 5.49999C18 5.40716 17.9631 5.31814 17.8975 5.2525C17.8318 5.18686 17.7428 5.14999 17.65 5.14999ZM11.35 3.4H13.1645C13.2358 3.60451 13.369 3.78177 13.5456 3.90721C13.7222 4.03264 13.9334 4.10002 14.15 4.10002C14.3666 4.10002 14.5778 4.03264 14.7544 3.90721C14.931 3.78177 15.0642 3.60451 15.1355 3.4H17.65C17.7428 3.4 17.8318 3.36312 17.8975 3.29748C17.9631 3.23185 18 3.14282 18 3.05C18 2.95717 17.9631 2.86815 17.8975 2.80251C17.8318 2.73687 17.7428 2.7 17.65 2.7H15.1355C15.0642 2.49549 14.931 2.31823 14.7544 2.19281C14.5778 2.06738 14.3666 2 14.15 2C13.9334 2 13.7222 2.06738 13.5456 2.19281C13.369 2.31823 13.2358 2.49549 13.1645 2.7H11.35C11.2572 2.7 11.1681 2.73687 11.1025 2.80251C11.0369 2.86815 11 2.95717 11 3.05C11 3.14282 11.0369 3.23185 11.1025 3.29748C11.1681 3.36312 11.2572 3.4 11.35 3.4Z" fill="#BDBDBD"></path>
</g>
<defs>
<clipPath id="clip0_2670_6078">
<rect width="24" height="24" fill="white"></rect>
</clipPath>
</defs>
</svg>