<svg width="42" height="42" viewBox="0 0 42 42" fill="none" xmlns="http://www.w3.org/2000/svg">
<rect x="1" y="1" width="40" height="40" rx="1.73913" fill="#DB1F26" fill-opacity="0.1" stroke="#DB1F26" stroke-width="0.869565"/>
<path d="M33.4578 37C33.441 36.9441 33.4294 36.8876 33.4076 36.8323C33.0961 36.0444 32.3471 35.5352 31.4996 35.5352C31.3554 35.5352 31.215 35.5508 31.0791 35.5793L32.4998 37H33.4578Z" fill="#DB1F26"/>
<path d="M29.5449 36.9999H31.6717L30.4861 35.8142C30.0361 36.0729 29.6973 36.4937 29.5449 36.9999Z" fill="#DB1F26"/>
<path d="M34.0677 37H35.3084V35.5352C35.3084 34.7275 34.6512 34.0703 33.8435 34.0703H29.5703L30.6135 35.1135C30.8918 35.0133 31.1874 34.9492 31.4998 34.9492C32.5893 34.9492 33.552 35.6038 33.9525 36.6169C34.0023 36.7428 34.0382 36.871 34.0677 37Z" fill="#DB1F26"/>
<path d="M30.0559 35.3842L28.7931 34.1213C28.1615 34.284 27.6914 34.8535 27.6914 35.5351V36.9999H28.9341C29.0878 36.3273 29.4963 35.7524 30.0559 35.3842Z" fill="#DB1F26"/>
<path d="M34.1367 28.7578C34.1367 27.7722 32.9786 27 31.5 27C30.0214 27 28.8633 27.7722 28.8633 28.7578C28.8633 28.9896 28.9305 29.1803 29.0324 29.3438H33.9676C34.0695 29.1803 34.1367 28.9896 34.1367 28.7578Z" fill="#DB1F26"/>
<path d="M29.4492 30.8826V31.3945C29.4492 32.5252 30.3693 33.4844 31.5 33.4844C32.6307 33.4844 33.5508 32.5252 33.5508 31.3945V30.8826C33.0833 31.2007 32.3699 31.3945 31.5 31.3945C30.6301 31.3945 29.9167 31.2007 29.4492 30.8826Z" fill="#DB1F26"/>
<path d="M29.4492 29.9297C29.4492 30.4151 30.3674 30.8086 31.5 30.8086C32.6326 30.8086 33.5508 30.4151 33.5508 29.9297H29.4492Z" fill="#DB1F26"/>
<path d="M5.34766 7.08691H16.652" stroke="#DB1F26" stroke-width="0.869565" stroke-linecap="round"/>
<path d="M10.5654 12.3044H15.7828" stroke="#DB1F26" stroke-width="0.869565" stroke-linecap="round"/>
<path d="M11.4346 24.4783H16.652" stroke="#DB1F26" stroke-width="0.869565" stroke-linecap="round"/>
<rect x="23.6084" y="5.3479" width="13.913" height="2.6087" rx="1.30435" fill="#DB1F26" fill-opacity="0.45"/>
<rect x="5.34766" y="32.3044" width="13.913" height="4.34783" rx="2.17391" fill="#DB1F26" fill-opacity="0.53"/>
<circle cx="7.08679" cy="12.3043" r="1.73913" fill="#DB1F26"/>
<circle cx="7.08679" cy="24.4781" r="1.73913" fill="#DB1F26" fill-opacity="0.52"/>
<line x1="7.17387" y1="14.0435" x2="7.17387" y2="22.7391" stroke="#DB1F26" stroke-width="0.173913" stroke-dasharray="0.35 0.35"/>
<g opacity="0.8">
<path d="M23.5921 13.1738H32.1102C32.5807 13.1738 32.9621 13.5552 32.9621 14.0257V17.8588H22.7403V14.0257C22.7403 13.5552 23.1216 13.1738 23.5921 13.1738ZM35.3046 21.2661H32.962C32.962 21.7366 32.5807 22.1179 32.1102 22.1179H30.4066C30.4066 21.0594 29.5485 20.2013 28.49 20.2013C28.096 20.2013 27.7298 20.3202 27.4252 20.5241C27.1207 20.3202 26.7545 20.2013 26.3605 20.2013C25.302 20.2013 24.4439 21.0594 24.4439 22.1179H23.5921C23.1216 22.1179 22.7402 21.7366 22.7402 21.2661V18.7106H32.962V20.4143H36.7952C37.0304 20.4143 37.2211 20.605 37.2211 20.8402C37.2211 21.0754 37.0304 21.2661 36.7952 21.2661H36.1564V21.905C36.1564 22.1402 35.9657 22.3309 35.7304 22.3309C35.4952 22.3309 35.3045 22.1402 35.3045 21.905L35.3046 21.2661ZM27.4253 21.0747C27.6958 20.7986 28.0729 20.6272 28.49 20.6272C29.3133 20.6272 29.9807 21.2946 29.9807 22.1179C29.9807 22.9412 29.3133 23.6086 28.49 23.6086C28.0729 23.6086 27.6958 23.4373 27.4253 23.1612C27.1547 23.4373 26.7776 23.6086 26.3605 23.6086C25.5372 23.6086 24.8698 22.9412 24.8698 22.1179C24.8698 21.2946 25.5372 20.6272 26.3605 20.6272C26.7776 20.6272 27.1547 20.7986 27.4253 21.0747ZM26.3605 22.7568C26.7133 22.7568 26.9993 22.4708 26.9993 22.1179C26.9993 21.7651 26.7133 21.479 26.3605 21.479C26.0077 21.479 25.7216 21.7651 25.7216 22.1179C25.7216 22.4707 26.0077 22.7568 26.3605 22.7568ZM28.49 22.7568C28.8429 22.7568 29.1289 22.4708 29.1289 22.1179C29.1289 21.7651 28.8429 21.4791 28.49 21.4791C28.1372 21.4791 27.8512 21.7651 27.8512 22.1179C27.8512 22.4708 28.1372 22.7568 28.49 22.7568Z" fill="#DB1F26"/>
</g>
</svg>
