<svg width="42" height="42" viewBox="0 0 42 42" fill="none" xmlns="http://www.w3.org/2000/svg">
<rect x="1" y="1" width="40" height="40" rx="1.73913" fill="#89D4F1" fill-opacity="0.1" stroke="#18ABE3" stroke-width="0.869565"/>
<path d="M26.2178 33.1738H37.5221" stroke="#18ABE3" stroke-width="0.869565" stroke-linecap="round"/>
<path d="M5.34766 7.08691H16.652" stroke="#18ABE3" stroke-width="0.869565" stroke-linecap="round"/>
<path d="M29.6953 35.7825H34.9127" stroke="#18ABE3" stroke-width="0.869565" stroke-linecap="round"/>
<path d="M10.5654 12.3042H15.7828" stroke="#18ABE3" stroke-width="0.869565" stroke-linecap="round"/>
<path d="M11.4346 24.4783H16.652" stroke="#18ABE3" stroke-width="0.869565" stroke-linecap="round"/>
<rect x="23.6084" y="5.34766" width="13.913" height="2.6087" rx="1.30435" fill="#18ABE3" fill-opacity="0.45"/>
<rect x="5.34766" y="32.3042" width="13.913" height="4.34783" rx="2.17391" fill="#18ABE3" fill-opacity="0.53"/>
<circle cx="7.08679" cy="12.3043" r="1.73913" fill="#18ABE3"/>
<circle cx="7.08679" cy="24.4781" r="1.73913" fill="#3BBAEA" fill-opacity="0.52"/>
<line x1="7.17387" y1="14.0435" x2="7.17387" y2="22.7391" stroke="#18ABE3" stroke-width="0.173913" stroke-dasharray="0.35 0.35"/>
<path d="M23.5911 13.1738H32.1093C32.5797 13.1738 32.9611 13.5552 32.9611 14.0257V17.8588H22.7393V14.0257C22.7393 13.5552 23.1207 13.1738 23.5911 13.1738ZM35.3036 21.2661H32.9611C32.9611 21.7366 32.5797 22.1179 32.1092 22.1179H30.4056C30.4056 21.0594 29.5475 20.2013 28.489 20.2013C28.095 20.2013 27.7288 20.3202 27.4242 20.5241C27.1197 20.3202 26.7535 20.2013 26.3595 20.2013C25.301 20.2013 24.4429 21.0594 24.4429 22.1179H23.5911C23.1206 22.1179 22.7393 21.7366 22.7393 21.2661V18.7106H32.9611V20.4143H36.7942C37.0295 20.4143 37.2201 20.605 37.2201 20.8402C37.2201 21.0754 37.0295 21.2661 36.7942 21.2661H36.1554V21.905C36.1554 22.1402 35.9647 22.3309 35.7295 22.3309C35.4942 22.3309 35.3036 22.1402 35.3036 21.905L35.3036 21.2661ZM27.4243 21.0747C27.6948 20.7986 28.0719 20.6272 28.489 20.6272C29.3123 20.6272 29.9797 21.2946 29.9797 22.1179C29.9797 22.9412 29.3123 23.6086 28.489 23.6086C28.0719 23.6086 27.6948 23.4373 27.4243 23.1612C27.1537 23.4373 26.7766 23.6086 26.3595 23.6086C25.5362 23.6086 24.8688 22.9412 24.8688 22.1179C24.8688 21.2946 25.5362 20.6272 26.3595 20.6272C26.7766 20.6272 27.1537 20.7986 27.4243 21.0747ZM26.3595 22.7568C26.7123 22.7568 26.9984 22.4708 26.9984 22.1179C26.9984 21.7651 26.7123 21.479 26.3595 21.479C26.0067 21.479 25.7207 21.7651 25.7207 22.1179C25.7207 22.4707 26.0067 22.7568 26.3595 22.7568ZM28.489 22.7568C28.8419 22.7568 29.1279 22.4708 29.1279 22.1179C29.1279 21.7651 28.8419 21.4791 28.489 21.4791C28.1362 21.4791 27.8502 21.7651 27.8502 22.1179C27.8502 22.4708 28.1362 22.7568 28.489 22.7568Z" fill="#18ABE3"/>
</svg>
