<svg width="47" height="47" viewBox="0 0 47 47" fill="none" xmlns="http://www.w3.org/2000/svg">
<path d="M43.0833 28.7922V31.5016C43.0833 31.9512 43.0637 32.4047 43.0244 32.8543C42.475 39.0409 38.1776 43.0834 31.9769 43.0834H15.023C11.8834 43.0834 9.23433 42.0644 7.33094 40.2169C6.58528 39.5317 5.95736 38.7267 5.4668 37.8039C6.11434 37.0166 6.84038 36.1547 7.54679 35.2909C8.74377 33.8576 9.9015 32.442 10.6275 31.5212C11.7068 30.1861 14.552 26.6718 18.4962 28.321C19.3007 28.6547 20.0071 29.1259 20.6547 29.5382C22.2441 30.5985 22.9113 30.9126 24.0298 30.3039C25.266 29.6364 26.0705 28.321 26.9143 26.9466C27.3656 26.2182 27.8169 25.5134 28.3075 24.8655C30.4463 22.0775 33.7429 21.3314 36.4901 22.9807C37.8637 23.8053 39.041 24.8458 40.1399 25.9041C40.3754 26.1397 40.6108 26.3576 40.8267 26.5736C41.121 26.8681 42.1021 27.8498 43.0833 28.7922Z" fill="#18ABE3"/>
<path opacity="0.4" d="M31.9969 3.91675H15.0234C8.37132 3.91675 3.91699 8.56989 3.91699 15.4985V31.5018C3.91699 33.9148 4.46642 36.0568 5.46718 37.8042C6.11472 37.0169 6.84076 36.155 7.54717 35.2891C8.74415 33.8578 9.90188 32.4423 10.6279 31.5214C11.7072 30.1864 14.5524 26.672 18.4966 28.3212C19.3011 28.655 20.0075 29.1262 20.6551 29.5385C22.2445 30.5987 22.9116 30.9128 24.0301 30.3022C25.2664 29.6366 26.0709 28.3212 26.9147 26.9449C27.366 26.2184 27.8173 25.5136 28.3079 24.8657C30.4467 22.0777 33.7433 21.3317 36.4905 22.9809C37.8641 23.8055 39.0414 24.8461 40.1403 25.9043C40.3757 26.1399 40.6112 26.3578 40.8271 26.5738C41.1214 26.8663 42.1025 27.848 43.0837 28.7924V15.4985C43.0837 8.56989 38.6293 3.91675 31.9969 3.91675Z" fill="#18ABE3"/>
<path d="M22.4318 17.2268C22.4318 19.9853 20.134 22.2824 17.377 22.2824C14.622 22.2824 12.3242 19.9853 12.3242 17.2268C12.3242 14.4702 14.622 12.1711 17.377 12.1711C20.134 12.1711 22.4318 14.4702 22.4318 17.2268Z" fill="#18ABE3"/>
</svg>
