<svg width="17" height="17" viewBox="0 0 17 17" fill="none" xmlns="http://www.w3.org/2000/svg">
<path d="M16.2404 15.4843L12.1943 11.2762C13.2346 10.0396 13.8046 8.48359 13.8046 6.86374C13.8046 3.07913 10.7255 0 6.94089 0C3.15628 0 0.0771484 3.07913 0.0771484 6.86374C0.0771484 10.6484 3.15628 13.7275 6.94089 13.7275C8.36169 13.7275 9.71563 13.299 10.8732 12.4854L14.95 16.7255C15.1204 16.9024 15.3496 17 15.5952 17C15.8276 17 16.0482 16.9114 16.2156 16.7502C16.5713 16.4079 16.5827 15.8403 16.2404 15.4843ZM6.94089 1.79054C9.73831 1.79054 12.0141 4.06632 12.0141 6.86374C12.0141 9.66117 9.73831 11.9369 6.94089 11.9369C4.14347 11.9369 1.86769 9.66117 1.86769 6.86374C1.86769 4.06632 4.14347 1.79054 6.94089 1.79054Z" fill="white"/>
</svg>
