<svg width="18" height="18" viewBox="0 0 18 18" fill="none" xmlns="http://www.w3.org/2000/svg">
<path fill-rule="evenodd" clip-rule="evenodd" d="M5.3808 3.44685C4.23073 3.44685 3.29841 4.37917 3.29841 5.52924V12.4705C3.29841 13.6206 4.23073 14.5529 5.3808 14.5529H12.3221C13.4722 14.5529 14.4045 13.6206 14.4045 12.4705V8.30575C14.4045 7.92239 14.7152 7.61162 15.0986 7.61162C15.482 7.61162 15.7927 7.92239 15.7927 8.30575V12.4705C15.7927 14.3873 14.2389 15.9412 12.3221 15.9412H5.3808C3.46402 15.9412 1.91016 14.3873 1.91016 12.4705V5.52924C1.91016 3.61246 3.46402 2.05859 5.3808 2.05859H9.54557C9.92894 2.05859 10.2397 2.36937 10.2397 2.75272C10.2397 3.13608 9.92894 3.44685 9.54557 3.44685H5.3808Z" fill="white"/>
<path fill-rule="evenodd" clip-rule="evenodd" d="M12.471 2.62839C12.8359 2.26356 13.3307 2.05859 13.8467 2.05859C14.3626 2.05859 14.8574 2.26356 15.2222 2.62839C15.587 2.99322 15.792 3.48804 15.792 4.00399C15.792 4.51995 15.587 5.01477 15.2222 5.3796L14.6786 5.9232C14.4076 6.19428 13.9681 6.19428 13.697 5.9232L11.9274 4.15364C11.6563 3.88256 11.6563 3.44307 11.9274 3.17199L12.471 2.62839ZM10.9458 5.13528C10.6747 4.86421 10.2352 4.86421 9.96412 5.13528L6.86739 8.23204C6.77843 8.32095 6.71533 8.43243 6.68482 8.55446L6.09496 10.9139C6.03582 11.1504 6.10513 11.4007 6.27754 11.5731C6.44995 11.7455 6.70017 11.8148 6.93672 11.7556L9.29616 11.1658C9.41819 11.1353 9.52966 11.0722 9.61858 10.9832L12.7154 7.8865C12.9864 7.61544 12.9864 7.17593 12.7154 6.90486L10.9458 5.13528Z" fill="white"/>
</svg>
