<svg width="32" height="33" viewBox="0 0 32 33" fill="none" xmlns="http://www.w3.org/2000/svg">
<path d="M31 27.1699C31 27.7219 30.552 28.1699 30 28.1699C28.722 28.1699 27.89 28.5859 26.928 29.0679C25.896 29.5849 24.727 30.1699 23 30.1699C21.264 30.1699 20.09 29.5829 19.054 29.0649C18.094 28.5849 17.265 28.1699 16 28.1699C14.735 28.1699 13.906 28.5849 12.946 29.0649C11.91 29.5829 10.736 30.1699 9 30.1699C7.273 30.1699 6.104 29.5849 5.072 29.0679C4.11 28.5859 3.278 28.1699 2 28.1699C1.448 28.1699 1 27.7219 1 27.1699C1 26.6179 1.448 26.1699 2 26.1699C3.751 26.1699 4.929 26.7599 5.968 27.2799C6.922 27.7569 7.746 28.1699 9 28.1699C10.264 28.1699 11.092 27.7549 12.052 27.2759C13.088 26.7569 14.263 26.1699 16 26.1699C17.737 26.1699 18.912 26.7569 19.948 27.2759C20.908 27.7549 21.736 28.1699 23 28.1699C24.254 28.1699 25.078 27.7569 26.032 27.2799C27.071 26.7599 28.249 26.1699 30 26.1699C30.552 26.1699 31 26.6179 31 27.1699Z" fill="white"/>
<path d="M2 23.1696C3.278 23.1696 4.11 23.5856 5.072 24.0676C6.104 24.5847 7.273 25.1696 9 25.1696C10.736 25.1696 11.91 24.5826 12.946 24.0646C13.906 23.5847 14.735 23.1696 16 23.1696C17.265 23.1696 18.094 23.5847 19.054 24.0646C20.09 24.5826 21.264 25.1696 23 25.1696C24.727 25.1696 25.896 24.5847 26.928 24.0676C27.89 23.5856 28.722 23.1696 30 23.1696C30.552 23.1696 31 22.7216 31 22.1696C31 21.6176 30.552 21.1696 30 21.1696C28.249 21.1696 27.071 21.7596 26.032 22.2796C26.021 22.2846 26.011 22.2896 26 22.2956V16.1696H26.94C27.793 16.1696 28.545 15.6276 28.857 14.7906C29.178 13.9266 28.955 12.9976 28.319 12.4506L18.285 3.06865C17.004 1.87165 14.997 1.87165 13.716 3.06865L3.709 12.4236C3.043 12.9976 2.821 13.9266 3.142 14.7906C3.454 15.6276 4.206 16.1696 5.059 16.1696H6V22.2956C5.989 22.2906 5.979 22.2857 5.968 22.2796C4.929 21.7596 3.751 21.1696 2 21.1696C1.448 21.1696 1 21.6176 1 22.1696C1 22.7216 1.448 23.1696 2 23.1696ZM13 21.8196V19.1696C13 17.5156 14.346 16.1696 16 16.1696C17.654 16.1696 19 17.5156 19 19.1696V21.8196C17.979 21.3756 16.931 21.1696 16 21.1696C15.077 21.1696 14.019 21.3766 13 21.8196ZM7 14.1696H5.062C5.016 14.1696 4.955 14.0616 5 14.0176L15.082 4.52965C15.597 4.04865 16.404 4.04865 16.919 4.52965L26.954 13.9106C27.021 13.9796 27.004 14.1696 26.94 14.1696H25C24.448 14.1696 24 14.6176 24 15.1696V23.0636C23.985 23.0666 23.971 23.0716 23.956 23.0746C22.885 23.2826 21.944 23.1406 21 22.7566V19.1696C21 16.4126 18.757 14.1696 16 14.1696C13.243 14.1696 11 16.4126 11 19.1696V22.7576C9.921 23.1966 8.984 23.2617 8 23.0646V15.1696C8 14.6176 7.552 14.1696 7 14.1696Z" fill="white"/>
</svg>
