<svg width="20" height="28" viewBox="0 0 20 28" fill="none" xmlns="http://www.w3.org/2000/svg">
<path fill-rule="evenodd" clip-rule="evenodd" d="M9.6397 0.532383C10.2414 0.67445 10.6666 1.21168 10.6666 1.83005V9.83005H18C18.4621 9.83005 18.8912 10.0693 19.1342 10.4624C19.3772 10.8555 19.3992 11.3463 19.1925 11.7596L11.8592 26.4263C11.5826 26.9794 10.9621 27.2698 10.3602 27.1278C9.75849 26.9856 9.33329 26.4484 9.33329 25.83V17.83H1.99996C1.53785 17.83 1.10871 17.5908 0.865762 17.1976C0.622815 16.8046 0.600735 16.3138 0.807388 15.9004L8.14076 1.23376C8.41729 0.680676 9.03783 0.390303 9.6397 0.532383ZM4.15733 15.1634H10.6666C11.403 15.1634 12 15.7603 12 16.4967V20.1819L15.8426 12.4967H9.33329C8.59689 12.4967 7.99996 11.8998 7.99996 11.1634V7.47813L4.15733 15.1634Z" fill="white"/>
</svg>
