<svg width="32" height="32" viewBox="0 0 32 32" fill="none" xmlns="http://www.w3.org/2000/svg">
<g clip-path="url(#clip0_1021_2596)">
<path d="M19.8549 30.125C19.3781 28.1357 19.359 26.086 19.7666 24.125H27.375V22.25H20.2976C20.8134 20.8202 21.567 19.4689 22.5469 18.2615L23.4468 17.1528C25.1949 14.9988 26.3327 12.4099 26.754 9.68756H30.3125V7.81256H26.9285C26.9339 7.64606 26.9375 7.47937 26.9375 7.3125V0H6C5.88906 3.04662 6.53869 6.11037 8.06888 8.76125C8.06881 8.76125 8.84156 10.1202 8.84156 10.1202C9.74862 11.7154 9.96906 13.5715 9.47831 15.3125H3.6875V17.1875H8.83269C7.45375 21.689 8.87906 26.9385 12.3442 30.125H0V32H32V30.125H19.8549ZM14.4796 29.4818C10.7721 26.7161 9.2245 21.5271 10.8019 17.1875H15.25V15.3125H11.4106C11.8628 13.241 11.5413 11.0749 10.4714 9.19344L9.69875 7.8345C8.66044 6.0085 8.04813 3.96525 7.90669 1.875H25.0625C25.0594 2.02931 25.0714 7.88556 25.0526 7.8125H18.75V9.6875H24.8539C24.4499 11.9783 23.468 14.1512 21.9909 15.9711L21.0911 17.0799C19.8328 18.6303 18.9017 20.3892 18.3193 22.25H15.8125V24.125H17.8568C17.4984 26.0929 17.5157 28.1313 17.9331 30.125H16.375C15.6935 30.125 15.0204 29.8966 14.4796 29.4818Z" fill="white"/>
<path d="M28.0459 15.4336H29.9209V17.3086H28.0459V15.4336Z" fill="white"/>
<path d="M28.9375 25.5H30.8125V27.375H28.9375V25.5Z" fill="white"/>
<path d="M0 22.002H1.875V23.877H0V22.002Z" fill="white"/>
<path d="M2.875 9.3125H4.75V11.1875H2.875V9.3125Z" fill="white"/>
</g>
<defs>
<clipPath id="clip0_1021_2596">
<rect width="32" height="32" fill="white"/>
</clipPath>
</defs>
</svg>
