<svg width="32" height="33" viewBox="0 0 32 33" fill="none" xmlns="http://www.w3.org/2000/svg">
<path d="M22.2841 8.79137H21.2001C20.5384 7.23257 19.4667 5.88219 18.0989 4.88382C16.7311 3.88544 15.1183 3.27637 13.432 3.12137C11.7457 2.96637 10.0489 3.27123 8.52201 4.00353C6.99513 4.73583 5.69522 5.86821 4.76048 7.28028C3.82575 8.69234 3.29114 10.3313 3.21347 12.0229C3.13581 13.7146 3.51801 15.3956 4.31942 16.8874C5.12084 18.3792 6.31152 19.6259 7.76489 20.495C9.21826 21.3642 10.88 21.8232 12.5734 21.8234C12.6027 21.825 12.6321 21.825 12.6614 21.8234H22.1921C22.2223 21.825 22.2525 21.825 22.2827 21.8234C24.0109 21.8234 25.6682 21.1369 26.8902 19.9149C28.1122 18.6929 28.7987 17.0355 28.7987 15.3074C28.7987 13.5792 28.1122 11.9218 26.8902 10.6999C25.6682 9.47787 24.0122 8.79137 22.2841 8.79137ZM22.3654 20.222C22.3374 20.222 22.3081 20.222 22.2801 20.222H12.5787C12.5499 20.2204 12.5209 20.2204 12.4921 20.222C11.0703 20.2085 9.67955 19.8053 8.47105 19.0563C7.26254 18.3073 6.2826 17.2412 5.63786 15.974C4.99312 14.7068 4.70828 13.2871 4.81433 11.8693C4.92037 10.4514 5.41325 9.08985 6.23932 7.93267C7.06539 6.77548 8.19302 5.86702 9.4995 5.30614C10.806 4.74526 12.2413 4.55344 13.6492 4.75156C15.0571 4.94968 16.3837 5.53014 17.4847 6.42979C18.5856 7.32944 19.4187 8.51382 19.8934 9.85404C19.9486 10.0101 20.0508 10.1452 20.1859 10.2407C20.3211 10.3362 20.4826 10.3875 20.6481 10.3874H22.2854C23.577 10.3951 24.8138 10.9108 25.7282 11.8231C26.6426 12.7354 27.1612 13.971 27.1719 15.2626C27.1826 16.5542 26.6845 17.7982 25.7853 18.7255C24.8861 19.6528 23.6581 20.189 22.3667 20.218L22.3654 20.222ZM13.1321 24.2967L11.6494 28.366C11.6162 28.4682 11.5628 28.5627 11.4924 28.6437C11.4219 28.7248 11.3359 28.7909 11.2393 28.838C11.1428 28.8851 11.0378 28.9123 10.9305 28.918C10.8232 28.9236 10.7159 28.9076 10.615 28.8709C10.514 28.8341 10.4215 28.7775 10.3429 28.7042C10.2644 28.631 10.2014 28.5426 10.1577 28.4445C10.114 28.3464 10.0905 28.2405 10.0886 28.133C10.0867 28.0256 10.1065 27.919 10.1467 27.8194L11.6281 23.7474C11.6612 23.6452 11.7146 23.5507 11.7851 23.4697C11.8555 23.3886 11.9416 23.3225 12.0381 23.2754C12.1347 23.2283 12.2397 23.2011 12.347 23.1954C12.4542 23.1898 12.5615 23.2058 12.6625 23.2425C12.7634 23.2793 12.8559 23.3359 12.9345 23.4092C13.0131 23.4824 13.0761 23.5708 13.1198 23.6689C13.1635 23.767 13.187 23.873 13.1889 23.9804C13.1907 24.0878 13.171 24.1944 13.1307 24.294L13.1321 24.2967ZM18.1467 24.2967L15.7467 30.882C15.7136 30.9842 15.6602 31.0787 15.5897 31.1597C15.5193 31.2408 15.4332 31.3069 15.3367 31.354C15.2401 31.4011 15.1351 31.4283 15.0278 31.434C14.9206 31.4396 14.8132 31.4236 14.7123 31.3869C14.6114 31.3501 14.5188 31.2935 14.4403 31.2202C14.3617 31.147 14.2987 31.0586 14.255 30.9605C14.2113 30.8624 14.1878 30.7565 14.1859 30.649C14.184 30.5416 14.2038 30.435 14.2441 30.3354L16.6441 23.75C16.6772 23.6479 16.7306 23.5534 16.8011 23.4723C16.8715 23.3912 16.9576 23.3252 17.0541 23.2781C17.1507 23.2309 17.2557 23.2038 17.363 23.1981C17.4702 23.1925 17.5775 23.2085 17.6785 23.2452C17.7794 23.2819 17.8719 23.3386 17.9505 23.4119C18.0291 23.4851 18.0921 23.5734 18.1358 23.6716C18.1795 23.7697 18.203 23.8756 18.2049 23.983C18.2067 24.0904 18.187 24.1971 18.1467 24.2967ZM23.1601 24.2967L21.6774 28.3687C21.6434 28.4699 21.5895 28.5633 21.5188 28.6434C21.4481 28.7235 21.3622 28.7886 21.2659 28.8349C21.1697 28.8812 21.0652 28.9078 20.9585 28.913C20.8519 28.9183 20.7453 28.9022 20.6449 28.8656C20.5446 28.829 20.4526 28.7727 20.3744 28.7C20.2962 28.6273 20.2333 28.5397 20.1895 28.4423C20.1457 28.3449 20.1218 28.2397 20.1192 28.133C20.1167 28.0262 20.1356 27.9201 20.1747 27.8207L21.6574 23.7487C21.6914 23.6475 21.7453 23.5541 21.816 23.474C21.8866 23.3939 21.9726 23.3288 22.0688 23.2825C22.1651 23.2362 22.2696 23.2097 22.3762 23.2044C22.4829 23.1991 22.5895 23.2152 22.6899 23.2518C22.7902 23.2884 22.8822 23.3447 22.9604 23.4174C23.0386 23.4901 23.1015 23.5777 23.1453 23.6751C23.1891 23.7725 23.213 23.8777 23.2155 23.9844C23.2181 24.0912 23.1992 24.1974 23.1601 24.2967Z" fill="white"/>
</svg>
