<svg width="32" height="33" viewBox="0 0 32 33" fill="none" xmlns="http://www.w3.org/2000/svg">
<g clip-path="url(#clip0_1021_2570)">
<path d="M16.0001 22.2178V14.3408C16.0001 13.9726 15.798 13.6347 15.4738 13.4599L8.03627 9.45994C7.63783 9.24607 7.14271 9.32517 6.83314 9.6572L0.27064 16.6572C-0.00181952 16.9472 -0.0760395 17.373 0.0821639 17.7383C0.241344 18.1045 0.601696 18.3408 1.00013 18.3408H4.00013V31.3408C4.00013 31.8935 4.4474 32.3408 5.00013 32.3408H18.0001L18.0011 30.3418C18.0011 30.2597 17.9913 30.1777 17.9708 30.0986L16.0001 22.2178ZM6.00013 30.3408V17.3408C6.00013 16.7881 5.55287 16.3408 5.00013 16.3408H3.30873L7.76577 11.5859L14.0001 14.9385V22.3408C14.0001 22.4228 14.0099 22.5039 14.0304 22.583L15.9699 30.3408L6.00013 30.3408Z" fill="white"/>
<path d="M31.729 16.6562L16.729 0.65625C16.5394 0.45398 16.2693 0.339722 15.9991 0.339844C15.7292 0.339966 15.4593 0.454224 15.27 0.65625L10.6421 5.59277L12.1011 6.95996L15.9995 2.80176L28.6909 16.3398H26.9995C26.4468 16.3398 25.9995 16.7871 25.9995 17.3398V32.3398H27.9995V18.3398H30.9995C31.3979 18.3398 31.7583 18.1035 31.9175 17.7373C32.0757 17.3721 32.0015 16.9463 31.729 16.6562Z" fill="white"/>
</g>
<defs>
<clipPath id="clip0_1021_2570">
<rect width="32" height="32" fill="white" transform="translate(0 0.339844)"/>
</clipPath>
</defs>
</svg>
