<svg width="32" height="32" viewBox="0 0 32 32" fill="none" xmlns="http://www.w3.org/2000/svg">
<path d="M16 30.1437C15.6029 30.1433 15.2124 30.0414 14.8659 29.8475L10.3724 27.3514C8.13862 26.1093 6.27734 24.2928 4.98116 22.09C3.68498 19.8871 3.001 17.3779 3 14.822V7.89433C2.99962 7.31755 3.21327 6.76115 3.59958 6.33287C3.98589 5.90458 4.51739 5.63487 5.09115 5.57597C6.87874 5.3866 8.63807 4.98895 10.3333 4.39112C11.8877 3.84177 13.3789 3.12763 14.7813 2.2609C15.1482 2.03653 15.57 1.91785 16.0001 1.91797C16.4302 1.91808 16.8519 2.03698 17.2187 2.26156C18.6213 3.12782 20.1124 3.84172 21.6667 4.39112C23.3619 4.98896 25.1213 5.38662 26.9089 5.57601C27.4826 5.63491 28.0141 5.90461 28.4004 6.33289C28.7867 6.76117 29.0004 7.31756 29 7.89433V14.8221C28.999 17.378 28.315 19.8871 27.0188 22.09C25.7227 24.2928 23.8614 26.1093 21.6276 27.3514L17.1328 29.8481C16.7866 30.0417 16.3966 30.1434 16 30.1437ZM16 3.91581C15.9412 3.91554 15.8836 3.93154 15.8333 3.96204C14.3092 4.90321 12.6889 5.67952 11 6.27645C9.15747 6.92665 7.24514 7.35884 5.30208 7.56421C5.21952 7.57137 5.14266 7.60927 5.08672 7.67041C5.03078 7.73155 4.99983 7.81146 5 7.89433V14.8221C5.00079 17.0213 5.58931 19.1803 6.70465 21.0757C7.81998 22.9712 9.42161 24.534 11.3437 25.6027L15.8385 28.0994C15.8876 28.127 15.943 28.1416 15.9993 28.1417C16.0556 28.1418 16.111 28.1275 16.1602 28.1001L20.6563 25.6027C22.5784 24.5341 24.18 22.9712 25.2954 21.0758C26.4107 19.1804 26.9992 17.0213 27 14.8221V7.89433C27.0002 7.81147 26.9692 7.73156 26.9133 7.67044C26.8573 7.60931 26.7805 7.57141 26.6979 7.56425C24.7549 7.35887 22.8425 6.92666 21 6.27645C19.3111 5.67951 17.6908 4.90384 16.1667 3.96265C16.1166 3.93168 16.0589 3.91544 16 3.91581Z" fill="white"/>
<path d="M15.3332 19.0009C15.0883 19.0013 14.8519 18.9113 14.6692 18.7483L11.6692 16.0816C11.4719 15.9052 11.3526 15.6578 11.3373 15.3936C11.3221 15.1294 11.4123 14.8699 11.5881 14.6721C11.7639 14.4743 12.0109 14.3542 12.2751 14.3382C12.5393 14.3222 12.799 14.4116 12.9974 14.5868L15.2695 16.6063L19.6042 11.9833C19.6936 11.8858 19.8014 11.807 19.9215 11.7515C20.0416 11.696 20.1715 11.6648 20.3037 11.6599C20.4359 11.6549 20.5677 11.6762 20.6916 11.7226C20.8155 11.769 20.929 11.8394 21.0255 11.93C21.1219 12.0205 21.1995 12.1292 21.2536 12.25C21.3077 12.3707 21.3374 12.5009 21.3408 12.6331C21.3443 12.7654 21.3214 12.897 21.2737 13.0204C21.2259 13.1437 21.1541 13.2564 21.0625 13.3518L16.0625 18.6851C15.9691 18.785 15.8562 18.8645 15.7307 18.9189C15.6052 18.9732 15.4699 19.0011 15.3332 19.0009Z" fill="white"/>
</svg>
