<svg width="16" height="16" viewBox="0 0 16 16" fill="none" xmlns="http://www.w3.org/2000/svg">
<rect width="16" height="16" fill="white"/>
<path d="M5.72508 13.8877C5.8638 13.9625 6.01913 14.0011 6.17671 14C6.51937 14 6.87983 13.8284 7.13553 13.5167L11.823 7.82706C12.1024 7.48793 12.1769 7.06699 12.0173 6.72856C11.8767 6.43044 11.5814 6.25255 11.2277 6.25255H9.23106L10.1906 3.13539C10.2773 2.85414 10.2325 2.56493 10.068 2.34204C9.98755 2.23423 9.88269 2.14703 9.76202 2.08759C9.64134 2.02815 9.5083 1.99816 9.37379 2.00009H6.81913C6.37382 2.00009 5.9557 2.31626 5.82562 2.75219L4.07416 8.61995C3.99049 8.90002 4.03666 9.18736 4.20119 9.40791C4.28185 9.51478 4.38658 9.60113 4.50688 9.65993C4.62717 9.71874 4.75964 9.74834 4.89352 9.74634H6.32718L5.34821 12.8356C5.20922 13.2746 5.35711 13.6878 5.72508 13.8877ZM6.19734 13.1044L7.36006 9.43556C7.38117 9.36883 7.38625 9.29807 7.37489 9.22901C7.36354 9.15994 7.33606 9.09453 7.29469 9.03808C7.25333 8.98162 7.19923 8.93571 7.13681 8.90407C7.07438 8.87242 7.00537 8.85594 6.93538 8.85596H4.93313L6.67921 3.00789C6.69843 2.94344 6.77155 2.8907 6.81983 2.8907H9.33395L8.2024 6.56684C8.1819 6.63345 8.17731 6.70394 8.18901 6.77264C8.20072 6.84134 8.22838 6.90634 8.26979 6.9624C8.31119 7.01846 8.36517 7.06402 8.42739 7.09542C8.48961 7.12681 8.55833 7.14317 8.62802 7.14316H11.2033C11.1888 7.18625 11.1659 7.22606 11.136 7.26035L6.44859 12.95C6.35484 13.0639 6.25617 13.1009 6.19687 13.1072C6.19664 13.1068 6.19711 13.1056 6.19734 13.1044Z" fill="#E10E0E"/>
</svg>
