<svg width="380" height="87" viewBox="0 0 380 87" fill="none" xmlns="http://www.w3.org/2000/svg">
<path d="M53.3455 79.5318C53.3455 82.0213 52.6342 83.8884 51.2116 85.1331C49.7891 86.3778 47.2996 87.0002 43.9211 87.0002C40.4536 87.0002 38.0531 86.3778 36.7195 85.1331C35.2969 83.8884 34.6745 82.0213 34.6745 79.5318V62.4613H18.6709V79.5318C18.6709 82.0213 17.9596 83.8884 16.5371 85.1331C15.1145 86.3778 12.6251 87.0002 9.24655 87.0002C5.77909 87.0002 3.37855 86.3778 2.04491 85.1331C0.622364 83.8884 0 82.0213 0 79.5318V32.41C0 30.0095 0.711273 28.1424 2.13382 26.8976C3.55636 25.6529 5.95691 24.9417 9.42437 24.9417C12.8029 24.9417 15.2035 25.6529 16.626 26.8976C17.9596 28.1424 18.6709 30.0095 18.6709 32.41V48.1469H34.6745V32.41C34.6745 30.0095 35.3858 28.1424 36.8084 26.8976C38.2309 25.6529 40.6315 24.9417 44.0989 24.9417C47.4775 24.9417 49.878 25.6529 51.3005 26.8976C52.6342 28.1424 53.3455 30.0095 53.3455 32.41V79.5318Z" fill="white"/>
<path d="M117.669 60.5941C117.669 65.0395 117.224 68.8626 116.424 72.1523C115.535 75.5308 114.113 78.287 112.068 80.4208C109.934 82.6435 107.178 84.3328 103.621 85.3997C100.065 86.4666 95.5306 87.0001 90.196 87.0001C84.7726 87.0001 80.3271 86.4666 76.8596 85.3997C73.3922 84.3328 70.636 82.6435 68.68 80.4208C66.6351 78.287 65.2125 75.5308 64.5013 72.1523C63.7011 68.8626 63.3455 65.0395 63.3455 60.5941V32.1432C63.3455 29.7426 64.0567 27.8755 65.4793 26.6308C66.9018 25.3861 69.3024 24.6748 72.7698 24.6748C76.1484 24.6748 78.5489 25.3861 79.9715 26.6308C81.3051 27.8755 82.0164 29.7426 82.0164 32.1432V60.5941C82.0164 64.6839 82.5498 67.6179 83.7945 69.5739C84.9504 71.5299 87.1731 72.419 90.5516 72.419C93.8413 72.419 96.064 71.5299 97.2198 69.5739C98.3756 67.6179 98.998 64.6839 98.998 60.5941V32.1432C98.998 29.7426 99.7093 27.8755 101.132 26.6308C102.554 25.3861 104.955 24.6748 108.422 24.6748C111.801 24.6748 114.201 25.3861 115.624 26.6308C116.958 27.8755 117.669 29.7426 117.669 32.1432V60.5941Z" fill="white"/>
<path d="M184.215 77.6647C184.215 79.1762 183.948 80.5098 183.593 81.6657C183.148 82.8215 182.437 83.7995 181.37 84.5997C180.303 85.3998 178.792 86.0222 177.013 86.3778C175.235 86.8224 172.924 87.0002 170.256 87.0002C167.322 87.0002 164.922 86.8224 163.055 86.3778C161.099 85.9333 159.587 85.3109 158.343 84.4218C157.098 83.5328 156.209 82.4658 155.497 81.1322C154.786 79.8875 154.164 78.376 153.63 76.5978L143.139 41.4788V79.2651C143.139 81.7546 142.517 83.6217 141.361 84.8664C140.116 86.1111 138.16 86.7335 135.315 86.7335C132.47 86.7335 130.425 86.1111 129.358 84.8664C128.202 83.6217 127.669 81.7546 127.669 79.2651V33.7437C127.669 32.3211 127.847 30.9875 128.291 29.8317C128.647 28.6758 129.447 27.6978 130.514 26.8977C131.581 26.0975 133.003 25.4751 134.782 25.0306C136.56 24.6749 138.783 24.4082 141.628 24.4082C144.473 24.4082 146.873 24.6749 148.829 25.1195C150.696 25.564 152.208 26.1864 153.453 27.0755C154.697 27.9646 155.675 29.0315 156.387 30.2762C157.098 31.6098 157.72 33.1213 158.254 34.8106L168.745 69.9297V32.1433C168.745 29.7427 169.278 27.8757 170.523 26.6309C171.679 25.3862 173.724 24.6749 176.569 24.6749C179.414 24.6749 181.37 25.3862 182.526 26.6309C183.593 27.8757 184.215 29.7427 184.215 32.1433V77.6647Z" fill="white"/>
<path d="M245.782 85.5776C247.294 84.6886 248.094 83.4438 248.094 82.0213C248.094 81.0433 247.827 79.9764 247.294 78.8206C246.76 77.6647 246.049 76.5089 245.249 75.2642L216.204 51.0597C214.455 49.6019 213.409 47.4676 213.33 45.1918L212.886 32.41C212.886 30.0095 212.175 28.1424 210.841 26.8976C209.419 25.6529 207.018 24.9417 203.639 24.9417C200.172 24.9417 197.771 25.6529 196.349 26.8976C194.926 28.1424 194.215 30.0095 194.215 32.41V79.5318C194.215 82.0213 194.837 83.8884 196.26 85.1331C197.594 86.3778 199.994 87.0002 203.462 87.0002C206.84 87.0002 209.33 86.3778 210.752 85.1331C212.175 83.8884 212.886 82.0213 212.886 79.5318V58.816L225.867 79.9764C226.489 81.0433 227.2 82.0213 227.912 82.9104C228.623 83.7995 229.512 84.5107 230.579 85.1331C231.557 85.7555 232.713 86.2 234.046 86.5556C235.291 86.9113 236.803 87.0002 238.581 87.0002C241.781 87.0002 244.182 86.5556 245.782 85.5776Z" fill="white"/>
<path d="M222.148 50.5837C217.828 49.8373 215.741 44.8606 218.236 41.2561L226.489 29.3347C227.912 27.2898 229.423 25.7783 231.202 24.7114C232.98 23.7334 235.202 23.2 237.87 23.2C241.07 23.2 243.293 23.6445 244.538 24.4447C245.783 25.2449 246.494 26.3118 246.494 27.7343C246.494 28.6234 246.049 29.7792 245.338 31.2018C244.627 32.6243 243.827 33.869 243.026 34.9359L231.341 50.0166C230.434 51.1863 228.956 51.7601 227.498 51.5081L222.148 50.5837Z" fill="white"/>
<path fill-rule="evenodd" clip-rule="evenodd" d="M275.737 25.7417H268.407C264.584 25.7417 261.917 26.453 260.406 27.8755C258.805 29.2981 258.094 31.2541 258.094 33.9213V79.5317C258.094 82.0212 258.716 83.8882 260.139 85.133C261.473 86.3777 263.873 87.0001 267.341 87.0001C270.719 87.0001 273.209 86.3777 274.631 85.133C276.054 83.8882 276.765 82.0212 276.765 79.5317V65.3951H282.811L291.435 82.3768C292.235 83.9772 293.391 85.133 294.813 85.8442C296.236 86.6444 298.281 87.0001 300.948 87.0001C304.416 87.0001 306.994 86.6444 308.683 85.8442C310.284 85.133 311.173 83.5326 311.173 81.0432C311.173 80.5097 310.995 79.7984 310.639 78.9982C310.461 78.6426 310.306 78.287 310.15 77.9313C309.995 77.5757 309.839 77.2201 309.661 76.8644L301.215 61.9277C302.193 61.3942 303.26 60.683 304.416 59.7939C305.483 58.9048 306.549 57.8379 307.527 56.5042C308.505 55.1706 309.306 53.5702 309.928 51.6142C310.55 49.6582 310.906 47.3466 310.906 44.5904C310.906 38.3668 308.95 33.6546 305.038 30.4539C301.126 27.3421 295.525 25.7417 288.145 25.7417H281.3C280.594 26.0533 279.945 26.5175 279.387 27.1111C278.73 27.8107 278.217 28.6721 277.885 29.6318C277.553 30.5916 277.412 31.6253 277.471 32.6568C277.53 33.6883 277.788 34.6913 278.226 35.5921C278.664 36.4928 279.271 37.2682 280.002 37.8612C280.518 38.2796 281.087 38.5997 281.686 38.8113H285.211C287.612 38.8113 289.39 39.4337 290.546 40.6784C291.613 41.9232 292.235 43.5235 292.235 45.6573C292.235 47.7912 291.613 49.5693 290.368 50.8141C289.123 52.1477 287.345 52.7701 284.945 52.7701H276.765V40.0416C276.132 39.3209 275.588 38.499 275.15 37.5984C274.452 36.165 274.042 34.5687 273.948 32.9271C273.854 31.2855 274.079 29.6404 274.607 28.113C274.899 27.2691 275.279 26.473 275.737 25.7417Z" fill="white"/>
<path d="M333.438 86.1861C334.444 86.7283 335.57 87.0082 336.712 87C339.197 87 341.81 85.7562 343.664 83.4962L377.648 42.2463C379.673 39.7875 380.214 36.7358 379.057 34.2821C378.037 32.1207 375.896 30.831 373.332 30.831H358.857L365.813 8.23159C366.442 6.19254 366.117 4.09572 364.924 2.47977C364.341 1.69817 363.581 1.06596 362.706 0.635019C361.831 0.204076 360.866 -0.0133301 359.891 0.000632441H341.37C338.141 0.000632441 335.11 2.29286 334.167 5.45338L321.469 47.9947C320.862 50.0253 321.197 52.1085 322.39 53.7074C322.975 54.4823 323.734 55.1083 324.606 55.5346C325.478 55.9609 326.439 56.1756 327.409 56.1611H337.803L330.706 78.5583C329.698 81.7409 330.77 84.7366 333.438 86.1861ZM336.862 80.5073L345.292 53.9079C345.445 53.4241 345.482 52.9111 345.399 52.4104C345.317 51.9097 345.118 51.4354 344.818 51.0261C344.518 50.6168 344.126 50.284 343.673 50.0546C343.221 49.8252 342.72 49.7057 342.213 49.7058H327.696L340.356 7.30722C340.495 6.83994 341.025 6.45762 341.375 6.45762H359.602L351.399 33.1097C351.25 33.5926 351.217 34.1036 351.302 34.6017C351.387 35.0998 351.587 35.571 351.887 35.9775C352.187 36.3839 352.579 36.7142 353.03 36.9418C353.481 37.1695 353.979 37.288 354.484 37.288H373.155C373.05 37.6003 372.884 37.889 372.668 38.1376L338.684 79.3875C338.004 80.2133 337.288 80.4818 336.859 80.5277C336.857 80.5243 336.86 80.5158 336.862 80.5073Z" fill="#E10E0E"/>
</svg>
