<svg width="18" height="24" viewBox="0 0 18 24" fill="none" xmlns="http://www.w3.org/2000/svg">
<path d="M4.31661 23.7754C4.59405 23.925 4.90471 24.0022 5.21988 24C5.90519 24 6.62612 23.6568 7.13752 23.0334L16.5124 11.6541C17.0712 10.9759 17.2202 10.134 16.901 9.45712C16.6198 8.86087 16.0292 8.5051 15.3218 8.5051H11.3286L13.2476 2.27078C13.4211 1.70828 13.3315 1.12985 13.0025 0.684074C12.8416 0.468459 12.6318 0.294058 12.3905 0.175177C12.1491 0.0562968 11.8831 -0.00367725 11.614 0.000174466H6.50472C5.6141 0.000174466 4.77786 0.632512 4.5177 1.50438L1.01477 13.2399C0.847426 13.8 0.939768 14.3747 1.26883 14.8158C1.43015 15.0296 1.63962 15.2023 1.88021 15.3199C2.1208 15.4375 2.38573 15.4967 2.6535 15.4927H5.52082L3.56287 21.6712C3.2849 22.5492 3.58068 23.3756 4.31661 23.7754ZM5.26113 22.2089L7.58658 14.8711C7.6288 14.7377 7.63896 14.5961 7.61624 14.458C7.59353 14.3199 7.53857 14.1891 7.45584 14.0762C7.37311 13.9632 7.26492 13.8714 7.14007 13.8081C7.01521 13.7449 6.87719 13.7119 6.73721 13.7119H2.73272L6.22487 2.01578C6.26331 1.88688 6.40956 1.78141 6.50612 1.78141H11.5344L9.27125 9.13368C9.23025 9.2669 9.22108 9.40788 9.24448 9.54528C9.26789 9.68269 9.32322 9.81268 9.40603 9.9248C9.48883 10.0369 9.5968 10.128 9.72123 10.1908C9.84567 10.2536 9.98311 10.2863 10.1225 10.2863H15.2731C15.244 10.3725 15.1983 10.4521 15.1385 10.5207L5.76363 21.9C5.57613 22.1278 5.37879 22.2018 5.2602 22.2145C5.25973 22.2136 5.26067 22.2112 5.26113 22.2089Z" fill="white"/>
</svg>
